<?xml version="1.0" encoding="utf-8"?>
<!-- Generator: Adobe Illustrator 17.0.0, SVG Export Plug-In . SVG Version: 6.00 Build 0)  -->
<!DOCTYPE svg PUBLIC "-//W3C//DTD SVG 1.1//EN" "http://www.w3.org/Graphics/SVG/1.1/DTD/svg11.dtd">
<svg version="1.1" id="Слой_1" xmlns:sketch="http://www.bohemiancoding.com/sketch/ns"
	 xmlns="http://www.w3.org/2000/svg" xmlns:xlink="http://www.w3.org/1999/xlink" x="0px" y="0px" width="207px" height="135px"
	 viewBox="0 0 207 135" enable-background="new 0 0 207 135" xml:space="preserve">
<title>Icon</title>
<desc>Created with Sketch.</desc>
<g id="Page-1" sketch:type="MSPage">
	<g id="Shop-_x2F_-Sign-UP-1" transform="translate(-634.000000, -169.000000)" sketch:type="MSArtboardGroup">
		<g id="Icon" transform="translate(634.000000, 169.000000)" sketch:type="MSLayerGroup">
			<path id="Fill-1" sketch:type="MSShapeGroup" fill="#212121" d="M65.124,88.024L4.865,77.379
				c-2.134-0.376-3.56-2.416-3.183-4.555l5.831-33.126c0.375-2.139,2.411-3.566,4.546-3.19l60.259,10.647
				c2.134,0.376,3.56,2.416,3.183,4.555L69.67,84.835C69.294,86.974,67.259,88.401,65.124,88.024"/>
			<path id="Fill-2" sketch:type="MSShapeGroup" fill="#AF9358" d="M65.817,89.396c-0.305,0-0.614-0.028-0.921-0.081L4.637,78.67
				c-1.375-0.244-2.574-1.009-3.376-2.156s-1.109-2.539-0.867-3.918L6.224,39.47c0.242-1.378,1.006-2.581,2.152-3.384
				c1.145-0.803,2.531-1.113,3.91-0.868l60.259,10.645c1.375,0.242,2.574,1.008,3.376,2.156c0.802,1.147,1.109,2.537,0.867,3.918
				l-5.831,33.126c-0.242,1.379-1.006,2.581-2.152,3.383C67.918,89.07,66.881,89.396,65.817,89.396L65.817,89.396z M11.372,37.759
				c-0.532,0-1.05,0.163-1.495,0.474c-0.573,0.401-0.955,1.003-1.075,1.691L2.971,73.052c-0.122,0.689,0.031,1.385,0.433,1.958
				c0.402,0.574,1.001,0.957,1.689,1.077l60.259,10.645c0.688,0.125,1.383-0.033,1.954-0.434c0.573-0.401,0.955-1.001,1.075-1.692
				l5.831-33.126c0.122-0.689-0.031-1.385-0.433-1.958c-0.402-0.574-1.001-0.957-1.689-1.079L11.831,37.799
				C11.678,37.772,11.525,37.759,11.372,37.759L11.372,37.759z"/>
			<path id="Fill-3" sketch:type="MSShapeGroup" fill="#AF9358" d="M32.444,63.228L3.302,74.469l29.492-13.227L32.444,63.228"/>
			<path id="Fill-4" sketch:type="MSShapeGroup" fill="#AF9358" d="M44.038,65.277l23.548,20.549L44.389,63.29L44.038,65.277"/>
			<path id="Fill-5" sketch:type="MSShapeGroup" fill="#AF9358" d="M8.444,39.382l27.166,24.17c1.461,1.3,3.528,1.666,5.344,0.945
				l33.778-13.406L41.885,66.226c-2.612,1.203-5.697,0.659-7.74-1.367L8.444,39.382"/>
			<path id="Fill-6" sketch:type="MSShapeGroup" fill="#9B8867" d="M180.221,27.822c4.774,1.371,6.466,4.856,5.271,9.038
				l-0.389,1.359c-0.696,2.437-2.441,3.405-4.131,2.92c-0.9-0.258-1.094-0.582-1.44-1.101c-0.903,0.028-2.059-0.132-3.204-0.461
				c-2.185-0.627-2.87-2.028-2.319-3.95l0.696-2.435c0.549-1.924,1.872-2.747,4.055-2.121c1.55,0.444,2.65,1.066,3.213,1.494
				c0.421,0.332,0.483,0.52,0.34,1.014l-1.381,4.836c-0.153,0.53,0.229,0.792,0.582,0.893c0.529,0.151,1.181-0.138,1.605-1.62
				l0.409-1.43c0.918-3.212-0.324-5.669-3.812-6.67c-3.452-0.991-5.804,0.435-6.723,3.646l-0.408,1.43
				c-0.924,3.23,0.364,5.528,3.816,6.519c1.268,0.363,3.166,0.603,3.956,0.696c0.357,0.026,0.429,0.104,0.349,0.387l-0.262,0.917
				c-0.106,0.37-0.245,0.446-0.587,0.443c-0.603-0.02-2.024-0.122-3.961-0.678c-4.738-1.36-6.474-4.686-5.273-8.886l0.389-1.359
				C172.207,28.522,175.483,26.463,180.221,27.822L180.221,27.822z M178.49,33.075c-0.969-0.278-1.455-0.037-1.688,0.776
				l-0.666,2.329c-0.232,0.813,0.059,1.258,1.028,1.536c0.599,0.173,1.248,0.301,1.589,0.305l1.205-4.219
				c0.021-0.071,0.001-0.134-0.081-0.177C179.569,33.442,178.983,33.218,178.49,33.075L178.49,33.075z"/>
			<path id="Fill-7" sketch:type="MSShapeGroup" fill="#9B8867" d="M13.019,87.127c3.685-0.99,6.173,0.633,7.037,3.861l0.28,1.049
				c0.502,1.881-0.263,3.21-1.569,3.56c-0.693,0.186-0.948,0.051-1.381-0.155c-0.585,0.376-1.408,0.729-2.292,0.966
				c-1.686,0.452-2.691-0.198-3.086-1.682l-0.504-1.88c-0.396-1.485,0.148-2.551,1.834-3.003c1.196-0.321,2.166-0.349,2.707-0.29
				c0.407,0.051,0.521,0.151,0.623,0.533l0.998,3.732c0.109,0.41,0.464,0.431,0.737,0.358c0.408-0.11,0.723-0.56,0.419-1.703
				l-0.296-1.104c-0.663-2.48-2.45-3.606-5.142-2.882c-2.663,0.716-3.649,2.585-2.985,5.063l0.294,1.104
				c0.667,2.493,2.42,3.497,5.086,2.781c0.979-0.262,2.319-0.858,2.879-1.109c0.242-0.125,0.322-0.102,0.381,0.115l0.19,0.708
				c0.076,0.288,0.016,0.391-0.211,0.524c-0.406,0.225-1.381,0.721-2.875,1.122c-3.656,0.982-6.113-0.519-6.979-3.76l-0.281-1.049
				C8.018,90.761,9.363,88.109,13.019,87.127L13.019,87.127z M13.953,91.269c-0.747,0.201-0.975,0.556-0.807,1.18l0.481,1.798
				c0.167,0.628,0.536,0.803,1.283,0.603c0.463-0.125,0.941-0.295,1.167-0.429l-0.87-3.254c-0.016-0.054-0.052-0.088-0.126-0.085
				C14.807,91.084,14.334,91.167,13.953,91.269L13.953,91.269z"/>
			<path id="Fill-8" sketch:type="MSShapeGroup" fill="#212121" d="M201.059,77.278l-59.194,10.458
				c-2.847,0.502-5.561-1.402-6.062-4.253l-4.477-25.432c-0.501-2.851,1.398-5.57,4.245-6.072l59.194-10.458
				c2.847-0.503,5.561,1.401,6.062,4.253l4.477,25.431C205.805,74.056,203.905,76.774,201.059,77.278"/>
			<path id="Fill-9" sketch:type="MSShapeGroup" fill="#AF9358" d="M140.942,89.128c-1.329,0-2.626-0.408-3.737-1.187
				c-1.431-1.004-2.386-2.506-2.69-4.23l-4.477-25.432c-0.625-3.558,1.756-6.964,5.306-7.591l59.195-10.458
				c1.719-0.304,3.456,0.083,4.887,1.085c1.431,1.005,2.386,2.507,2.69,4.231l4.475,25.431c0.303,1.725-0.081,3.463-1.083,4.898
				c-1.002,1.433-2.501,2.391-4.221,2.695l-59.195,10.457C141.708,89.093,141.324,89.128,140.942,89.128L140.942,89.128z
				 M195.684,42.75c-0.229,0-0.46,0.02-0.691,0.06l-59.194,10.458c-2.131,0.376-3.56,2.42-3.184,4.555l4.475,25.431
				c0.183,1.035,0.756,1.936,1.614,2.539c0.859,0.603,1.902,0.836,2.933,0.651l59.194-10.458c1.033-0.182,1.932-0.756,2.534-1.617
				c0.602-0.86,0.832-1.903,0.65-2.937l-4.477-25.431c-0.182-1.035-0.755-1.936-1.613-2.539
				C197.259,42.994,196.48,42.75,195.684,42.75L195.684,42.75z M201.059,77.278h0.013H201.059L201.059,77.278z"/>
			<path id="Fill-10" sketch:type="MSShapeGroup" fill="#212121" d="M200.321,74.498l-58.712,10.371
				c-1.423,0.252-2.78-0.7-3.031-2.126l-4.39-24.949c-0.251-1.426,0.699-2.785,2.122-3.037l58.712-10.373
				c1.423-0.25,2.78,0.701,3.031,2.127l4.39,24.949C202.694,72.886,201.744,74.246,200.321,74.498"/>
			<path id="Fill-11" sketch:type="MSShapeGroup" fill="#9B8867" d="M200.321,74.498c0,0,0.246-0.029,0.658-0.222
				c0.399-0.189,0.986-0.613,1.289-1.41c0.378-0.8,0.021-1.836-0.173-2.992c-0.22-1.164-0.467-2.477-0.737-3.91
				c-0.54-2.865-1.169-6.209-1.843-9.789c-0.338-1.792-0.685-3.642-1.04-5.522c-0.178-0.94-0.356-1.887-0.535-2.839
				c-0.092-0.464-0.175-0.979-0.273-1.402c-0.106-0.406-0.328-0.78-0.634-1.062c-0.302-0.288-0.688-0.482-1.091-0.565
				c-0.2-0.042-0.416-0.046-0.594-0.038c-0.239,0.025-0.438,0.069-0.692,0.117c-0.95,0.178-1.896,0.358-2.833,0.535
				c-1.877,0.355-3.724,0.704-5.511,1.042c-3.575,0.676-6.911,1.307-9.771,1.847c-5.719,1.081-9.533,1.802-9.533,1.802
				s-7.65,1.304-19.126,3.261c-2.869,0.489-5.977,1.018-9.264,1.579c-0.794,0.142-1.718,0.279-2.435,0.429
				c-0.649,0.182-1.205,0.712-1.406,1.383c-0.056,0.165-0.078,0.339-0.092,0.514c-0.001,0.087-0.003,0.143,0.003,0.242l0.02,0.165
				l0.021,0.138l0.224,1.317c0.149,0.882,0.301,1.772,0.453,2.671c0.611,3.593,1.241,7.306,1.882,11.078
				c0.32,1.886,0.642,3.788,0.967,5.696l0.488,2.868c0.082,0.465,0.158,0.986,0.247,1.408c0.097,0.402,0.31,0.78,0.61,1.068
				c0.296,0.294,0.679,0.498,1.086,0.59c0.201,0.047,0.42,0.056,0.604,0.051c0.241-0.021,0.445-0.06,0.699-0.104l2.862-0.488
				c1.906-0.325,3.803-0.649,5.685-0.97c3.766-0.642,7.471-1.274,11.058-1.885c7.171-1.223,13.865-2.364,19.603-3.342
				C192.671,75.802,200.321,74.498,200.321,74.498s-7.635,1.396-19.085,3.489c-5.726,1.047-12.405,2.269-19.562,3.577
				c-3.579,0.654-7.276,1.33-11.034,2.017c-1.879,0.343-3.771,0.689-5.672,1.038l-2.857,0.522c-0.224,0.041-0.496,0.094-0.738,0.118
				c-0.298,0.018-0.568,0.004-0.84-0.054c-0.54-0.114-1.049-0.379-1.448-0.763c-0.403-0.38-0.696-0.881-0.832-1.419
				c-0.116-0.527-0.182-0.969-0.276-1.457l-0.521-2.863c-0.347-1.904-0.693-3.801-1.036-5.683c-0.685-3.766-1.361-7.47-2.013-11.056
				c-0.164-0.897-0.324-1.785-0.485-2.666l-0.239-1.313l-0.03-0.191l-0.022-0.164c-0.01-0.121-0.017-0.286-0.013-0.418
				c0.014-0.265,0.048-0.531,0.128-0.784c0.293-1.021,1.128-1.843,2.127-2.135c0.952-0.216,1.703-0.324,2.548-0.488
				c3.281-0.599,6.381-1.167,9.245-1.689c11.45-2.094,19.085-3.49,19.085-3.49s3.829-0.629,9.572-1.573
				c2.873-0.472,6.223-1.022,9.813-1.612c1.795-0.295,3.65-0.6,5.535-0.91c0.942-0.155,1.892-0.311,2.845-0.468
				c0.222-0.037,0.498-0.087,0.74-0.106c0.306-0.014,0.577,0.007,0.85,0.068c0.542,0.125,1.049,0.397,1.442,0.789
				c0.398,0.385,0.68,0.889,0.806,1.425c0.109,0.524,0.165,0.97,0.25,1.459c0.157,0.954,0.313,1.906,0.467,2.851
				c0.309,1.889,0.614,3.746,0.908,5.544c0.589,3.598,1.138,6.954,1.609,9.831c0.235,1.439,0.451,2.758,0.644,3.927
				c0.164,1.148,0.504,2.222,0.097,3.039c-0.33,0.809-0.934,1.22-1.341,1.402C200.567,74.475,200.321,74.498,200.321,74.498"/>
			<path id="Fill-12" sketch:type="MSShapeGroup" fill="#AF9358" d="M150.79,63.652l0.145,2.987l2.423-1.743
				c0.426-0.318,0.645-0.253,0.895,0.186l0.523,1.016c0.212,0.413,0.16,0.7-0.338,0.822l-2.786,1.046l2.381,1.758
				c0.395,0.278,0.442,0.545,0.088,0.886l-0.786,0.831c-0.356,0.339-0.631,0.353-0.907-0.048l-1.817-2.275l-0.93,2.762
				c-0.124,0.471-0.419,0.558-0.829,0.389l-1.028-0.544c-0.45-0.201-0.53-0.461-0.221-0.862l1.672-2.475l-2.976-0.03
				c-0.514,0.024-0.655-0.194-0.598-0.655l0.145-1.132c0.119-0.506,0.302-0.641,0.778-0.484l2.837,0.815l-0.883-2.856
				c-0.177-0.419-0.044-0.65,0.424-0.731l1.139-0.203C150.609,63.028,150.846,63.193,150.79,63.652"/>
			<path id="Fill-13" sketch:type="MSShapeGroup" fill="#AF9358" d="M162.948,61.505l0.145,2.986l2.421-1.743
				c0.429-0.317,0.648-0.253,0.897,0.187l0.523,1.014c0.212,0.413,0.158,0.699-0.338,0.822l-2.786,1.046l2.381,1.759
				c0.394,0.277,0.441,0.545,0.086,0.885l-0.786,0.831c-0.355,0.339-0.629,0.353-0.905-0.049l-1.817-2.274l-0.93,2.759
				c-0.126,0.473-0.42,0.56-0.831,0.391l-1.028-0.545c-0.45-0.198-0.53-0.46-0.221-0.861l1.672-2.475l-2.975-0.029
				c-0.515,0.022-0.657-0.195-0.599-0.655l0.145-1.134c0.119-0.505,0.303-0.641,0.78-0.484l2.837,0.815l-0.883-2.856
				c-0.178-0.419-0.046-0.649,0.423-0.733l1.139-0.201C162.769,60.878,163.005,61.045,162.948,61.505"/>
			<path id="Fill-14" sketch:type="MSShapeGroup" fill="#AF9358" d="M175.106,59.357l0.147,2.986l2.42-1.743
				c0.429-0.317,0.646-0.253,0.897,0.187l0.523,1.014c0.211,0.413,0.158,0.7-0.338,0.822l-2.786,1.046l2.381,1.759
				c0.395,0.278,0.442,0.545,0.086,0.886l-0.786,0.831c-0.355,0.337-0.629,0.351-0.907-0.05l-1.816-2.274l-0.93,2.759
				c-0.124,0.473-0.421,0.56-0.829,0.389l-1.028-0.544c-0.45-0.198-0.53-0.46-0.221-0.861l1.671-2.476l-2.975-0.028
				c-0.514,0.022-0.655-0.195-0.598-0.655l0.145-1.132c0.118-0.506,0.302-0.642,0.778-0.484l2.837,0.814l-0.883-2.856
				c-0.178-0.418-0.044-0.649,0.424-0.733l1.138-0.201C174.927,58.732,175.163,58.898,175.106,59.357"/>
			<path id="Fill-15" sketch:type="MSShapeGroup" fill="#AF9358" d="M187.264,57.209l0.147,2.987l2.421-1.743
				c0.429-0.317,0.646-0.254,0.897,0.186l0.523,1.016c0.211,0.412,0.157,0.699-0.339,0.82l-2.786,1.047l2.382,1.758
				c0.394,0.277,0.441,0.544,0.086,0.886l-0.786,0.831c-0.356,0.338-0.629,0.351-0.908-0.049l-1.814-2.275l-0.93,2.76
				c-0.126,0.472-0.421,0.558-0.831,0.389l-1.028-0.544c-0.45-0.199-0.53-0.461-0.221-0.864l1.672-2.473l-2.975-0.029
				c-0.515,0.022-0.657-0.195-0.599-0.655l0.145-1.134c0.119-0.505,0.302-0.64,0.778-0.482l2.837,0.814l-0.882-2.856
				c-0.178-0.418-0.046-0.649,0.423-0.731l1.139-0.202C187.086,56.583,187.322,56.748,187.264,57.209"/>
			<path id="Fill-16" sketch:type="MSShapeGroup" fill="#9B8867" d="M194.918,79.951v31.456l1.354-15.728L194.918,79.951"/>
			<path id="Fill-17" sketch:type="MSShapeGroup" fill="#9B8867" d="M185.761,87.816l7.849,7.864h3.925l7.849-7.864l-9.157,6.553
				h-1.308L185.761,87.816"/>
			<path id="Fill-18" sketch:type="MSShapeGroup" fill="#9B8867" d="M185.761,103.544l7.849-7.864h3.925l7.849,7.864l-9.157-6.553
				h-1.308L185.761,103.544"/>
			<path id="Fill-19" sketch:type="MSShapeGroup" fill="#212121" d="M171.672,133.689H35.02c-2.047,0-3.749-1.575-3.913-3.619
				l-2.327-29.148h149.132l-2.327,29.148C175.421,132.114,173.718,133.689,171.672,133.689"/>
			<path id="Fill-20" sketch:type="MSShapeGroup" fill="#AF9358" d="M171.672,135H35.019c-2.708,0-5-2.119-5.216-4.825
				l-2.327-29.148c-0.029-0.364,0.095-0.725,0.343-0.993c0.249-0.269,0.597-0.422,0.962-0.422h149.132
				c0.365,0,0.713,0.153,0.962,0.422c0.247,0.269,0.372,0.629,0.343,0.993l-2.329,29.148C176.673,132.881,174.381,135,171.672,135
				L171.672,135z M30.197,102.233l2.215,27.734c0.107,1.351,1.253,2.412,2.607,2.412h136.653c1.355,0,2.501-1.06,2.609-2.412
				l2.215-27.734H30.197L30.197,102.233z"/>
			<path id="Fill-21" sketch:type="MSShapeGroup" fill="#212121" d="M151.748,60.291H54.943L31.396,15.728h143.899L151.748,60.291"
				/>
			<path id="Fill-22" sketch:type="MSShapeGroup" fill="#AF9358" d="M151.748,61.602H54.943c-0.485,0-0.929-0.269-1.156-0.697
				L30.24,16.342c-0.215-0.406-0.201-0.895,0.035-1.29c0.237-0.393,0.662-0.634,1.121-0.634h143.899
				c0.459,0,0.884,0.241,1.121,0.634c0.237,0.395,0.25,0.883,0.035,1.29l-23.547,44.563
				C152.677,61.333,152.234,61.602,151.748,61.602L151.748,61.602z M55.731,58.981h95.23l22.162-41.942H33.569L55.731,58.981
				L55.731,58.981z"/>
			<path id="Fill-23" sketch:type="MSShapeGroup" fill="#212121" d="M177.912,100.922H28.78l26.164-40.631h96.805L177.912,100.922"
				/>
			<path id="Fill-24" sketch:type="MSShapeGroup" fill="#AF9358" d="M177.912,102.233H28.78c-0.479,0-0.92-0.262-1.149-0.684
				c-0.229-0.421-0.211-0.933,0.05-1.337l26.164-40.631c0.241-0.375,0.654-0.6,1.099-0.6h96.805c0.445,0,0.858,0.225,1.099,0.6
				l26.164,40.631c0.26,0.404,0.279,0.916,0.05,1.337C178.832,101.971,178.391,102.233,177.912,102.233L177.912,102.233z
				 M31.18,99.612h144.331l-24.476-38.01H55.656L31.18,99.612L31.18,99.612z"/>
			<path id="Fill-25" sketch:type="MSShapeGroup" fill="#212121" d="M175.296,15.728H31.396l1.873-7.508
				c0.437-1.75,2.007-2.978,3.807-2.978h132.539c1.8,0,3.37,1.228,3.807,2.978L175.296,15.728"/>
			<path id="Fill-26" sketch:type="MSShapeGroup" fill="#AF9358" d="M175.296,17.039H31.396c-0.403,0-0.784-0.186-1.031-0.505
				c-0.249-0.317-0.336-0.733-0.238-1.125l1.873-7.506c0.582-2.338,2.67-3.971,5.076-3.971h132.539c2.406,0,4.494,1.633,5.076,3.971
				l1.873,7.506c0.098,0.392,0.009,0.807-0.238,1.125C176.079,16.853,175.699,17.039,175.296,17.039L175.296,17.039z M33.072,14.417
				H173.62l-1.466-5.878c-0.292-1.169-1.336-1.986-2.538-1.986H37.076c-1.202,0-2.246,0.817-2.538,1.986L33.072,14.417
				L33.072,14.417z"/>
			<path id="Fill-27" sketch:type="MSShapeGroup" fill="#9B8867" d="M59.055,66.66c0.122-0.018,0.245-0.025,0.369-0.021
				l-0.556-2.416l-2.616-2.621l2.616,3.932L59.055,66.66"/>
			<path id="Fill-28" sketch:type="MSShapeGroup" fill="#9B8867" d="M151.748,61.602l-2.616,2.621l-3.925,17.039l9.157,17.039
				l-7.849-17.039l2.616-15.728L151.748,61.602"/>
			<path id="Fill-29" sketch:type="MSShapeGroup" fill="#9B8867" d="M75.656,79.951c0.052,0.1,0.095,0.204,0.131,0.311l41.949,1
				l27.472-1.311H75.656"/>
			<path id="Fill-30" sketch:type="MSShapeGroup" fill="#9B8867" d="M57.56,56.359l-18.314-39.32h2.616L57.56,56.359"/>
			<path id="Fill-31" sketch:type="MSShapeGroup" fill="#9B8867" d="M149.132,56.359l18.314-39.32h-2.616L149.132,56.359"/>
			<path id="Fill-32" sketch:type="MSShapeGroup" fill="#9B8867" d="M58.868,55.049h90.264l-41.862-1.311L58.868,55.049"/>
			<path id="Fill-33" sketch:type="MSShapeGroup" fill="#212121" d="M108.579,93.373H98.113l1.308-24.117
				c0,0,1.308-2.412,3.925-2.412c2.943,0,3.925,2.412,3.925,2.412L108.579,93.373"/>
			<path id="Fill-34" sketch:type="MSShapeGroup" fill="#AF9358" d="M108.579,94.683H98.113c-0.358,0-0.702-0.148-0.95-0.409
				c-0.247-0.261-0.377-0.613-0.356-0.973l1.308-24.117c0.01-0.195,0.063-0.384,0.157-0.556c0.068-0.126,1.718-3.096,5.073-3.096
				c3.779,0,5.082,3.096,5.136,3.227c0.055,0.135,0.088,0.278,0.095,0.425l1.308,24.117c0.02,0.359-0.11,0.712-0.357,0.973
				C109.281,94.535,108.937,94.683,108.579,94.683L108.579,94.683z M99.495,92.062h7.703l-1.218-22.468
				c-0.235-0.413-0.985-1.439-2.633-1.439c-1.412,0-2.306,1.045-2.637,1.514L99.495,92.062L99.495,92.062z"/>
			<path id="Fill-35" sketch:type="MSShapeGroup" fill="#212121" d="M103.346,89.441c-2.89,0-5.233,2.931-5.233,4.928
				s2.343,3.617,5.233,3.617c2.89,0,5.233-1.62,5.233-3.617S106.236,89.441,103.346,89.441"/>
			<path id="Fill-36" sketch:type="MSShapeGroup" fill="#AF9358" d="M103.346,99.297c-3.668,0-6.541-2.165-6.541-4.928
				c0-2.809,3.018-6.239,6.541-6.239s6.541,3.43,6.541,6.239C109.887,97.132,107.014,99.297,103.346,99.297L103.346,99.297z
				 M103.346,90.751c-2.228,0-3.925,2.412-3.925,3.617c0,1.09,1.612,2.307,3.925,2.307c2.313,0,3.925-1.216,3.925-2.307
				C107.27,93.163,105.574,90.751,103.346,90.751L103.346,90.751z"/>
			<path id="Fill-37" sketch:type="MSShapeGroup" fill="#212121" d="M88.956,93.373H78.491l6.541-24.117
				c0,0,1.308-2.412,3.925-2.412c2.943,0,3.925,2.412,3.925,2.412L88.956,93.373"/>
			<path id="Fill-38" sketch:type="MSShapeGroup" fill="#AF9358" d="M88.956,94.683H78.491c-0.408,0-0.791-0.19-1.039-0.514
				c-0.247-0.325-0.331-0.746-0.224-1.14l6.541-24.117c0.026-0.098,0.065-0.193,0.114-0.283c0.068-0.126,1.718-3.096,5.073-3.096
				c3.779,0,5.082,3.096,5.136,3.227c0.092,0.224,0.119,0.468,0.08,0.706l-3.925,24.117C90.144,94.218,89.597,94.683,88.956,94.683
				L88.956,94.683z M80.202,92.062h7.642l3.675-22.583c-0.297-0.463-1.053-1.324-2.563-1.324c-1.534,0-2.458,1.233-2.711,1.623
				L80.202,92.062L80.202,92.062z"/>
			<path id="Fill-39" sketch:type="MSShapeGroup" fill="#212121" d="M83.723,89.441c-2.89,0-5.233,2.931-5.233,4.928
				s2.343,3.617,5.233,3.617c2.89,0,5.233-1.62,5.233-3.617S86.613,89.441,83.723,89.441"/>
			<path id="Fill-40" sketch:type="MSShapeGroup" fill="#AF9358" d="M83.723,99.297c-3.668,0-6.541-2.165-6.541-4.928
				c0-2.809,3.018-6.239,6.541-6.239c3.523,0,6.541,3.43,6.541,6.239C90.264,97.132,87.391,99.297,83.723,99.297L83.723,99.297z
				 M83.723,90.751c-2.228,0-3.925,2.412-3.925,3.617c0,1.09,1.612,2.307,3.925,2.307c2.313,0,3.925-1.216,3.925-2.307
				C87.648,93.163,85.951,90.751,83.723,90.751L83.723,90.751z"/>
			<path id="Fill-41" sketch:type="MSShapeGroup" fill="#212121" d="M117.736,93.373h10.465l-6.541-24.117
				c0,0-1.308-2.412-3.925-2.412c-2.943,0-3.925,2.412-3.925,2.412L117.736,93.373"/>
			<path id="Fill-42" sketch:type="MSShapeGroup" fill="#AF9358" d="M128.201,94.683h-10.465c-0.641,0-1.188-0.465-1.291-1.1
				l-3.925-24.117c-0.039-0.239-0.012-0.482,0.08-0.706c0.054-0.131,1.357-3.227,5.136-3.227c3.355,0,5.005,2.97,5.073,3.096
				c0.048,0.09,0.088,0.185,0.114,0.283l6.541,24.117c0.107,0.395,0.024,0.815-0.224,1.14
				C128.993,94.493,128.608,94.683,128.201,94.683L128.201,94.683z M118.848,92.062h7.642l-6.045-22.287
				c-0.245-0.377-1.17-1.62-2.709-1.62c-1.512,0-2.27,0.868-2.563,1.322L118.848,92.062L118.848,92.062z"/>
			<path id="Fill-43" sketch:type="MSShapeGroup" fill="#212121" d="M122.969,89.441c2.89,0,5.233,2.931,5.233,4.928
				s-2.343,3.617-5.233,3.617s-5.233-1.62-5.233-3.617S120.079,89.441,122.969,89.441"/>
			<path id="Fill-44" sketch:type="MSShapeGroup" fill="#AF9358" d="M122.969,99.297c-3.668,0-6.541-2.165-6.541-4.928
				c0-2.809,3.018-6.239,6.541-6.239s6.541,3.43,6.541,6.239C129.509,97.132,126.637,99.297,122.969,99.297L122.969,99.297z
				 M122.969,90.751c-2.228,0-3.925,2.412-3.925,3.617c0,1.09,1.612,2.307,3.925,2.307c2.313,0,3.925-1.216,3.925-2.307
				C126.893,93.163,125.196,90.751,122.969,90.751L122.969,90.751z"/>
			<path id="Fill-45" sketch:type="MSShapeGroup" fill="#AF9358" d="M90.264,76.491c0,0-0.256-0.692-0.721-1.127
				c-0.455-0.451-1.002-0.587-1.002-0.587s-0.175-0.199-0.551-0.427c-0.37-0.231-0.968-0.439-1.613-0.52
				c-1.304-0.198-2.654,0.25-2.654,0.25s0.075-0.045,0.204-0.122c0.128-0.081,0.313-0.189,0.556-0.299
				c0.479-0.229,1.154-0.471,1.882-0.573c0.725-0.106,1.499-0.069,2.08,0.096c0.582,0.157,0.954,0.384,0.954,0.384
				s0.156,0.148,0.33,0.421c0.183,0.254,0.378,0.637,0.467,1.022c0.116,0.377,0.119,0.765,0.107,1.035
				C90.28,76.313,90.264,76.491,90.264,76.491"/>
			<path id="Fill-46" sketch:type="MSShapeGroup" fill="#AF9358" d="M90.264,83.726c0,0-0.081-0.193-0.201-0.482
				c-0.132-0.277-0.324-0.637-0.598-0.906c-0.519-0.574-1.183-0.79-1.183-0.79s-0.23-0.241-0.7-0.509
				c-0.467-0.271-1.202-0.503-1.985-0.581c-1.58-0.199-3.183,0.374-3.183,0.374s0.09-0.051,0.247-0.14
				c0.156-0.094,0.379-0.218,0.672-0.343c0.576-0.26,1.387-0.531,2.253-0.633c0.862-0.11,1.774-0.048,2.45,0.156
				c0.676,0.195,1.103,0.465,1.103,0.465s0.186,0.165,0.395,0.474c0.115,0.143,0.23,0.322,0.324,0.531
				c0.109,0.197,0.2,0.413,0.256,0.641c0.152,0.436,0.173,0.893,0.173,1.212C90.275,83.514,90.264,83.726,90.264,83.726"/>
			<path id="Fill-47" sketch:type="MSShapeGroup" fill="#AF9358" d="M121.927,71.689c0,0-0.657-0.317-1.3-0.359
				c-0.648-0.066-1.18,0.152-1.18,0.152c0,0.016-0.267-0.058-0.701-0.01c-0.43,0.043-1.03,0.218-1.582,0.55
				c-0.556,0.324-1.049,0.789-1.368,1.178c-0.161,0.191-0.286,0.37-0.364,0.501c-0.081,0.126-0.128,0.199-0.128,0.199
				s0.025-0.083,0.071-0.227c0.039-0.147,0.111-0.347,0.222-0.592c0.216-0.485,0.586-1.105,1.101-1.637
				c0.508-0.537,1.164-0.963,1.724-1.184c0.281-0.106,0.526-0.183,0.705-0.21c0.179-0.035,0.281-0.055,0.281-0.055
				s0.863,0.166,1.49,0.642C121.541,71.089,121.927,71.689,121.927,71.689"/>
			<path id="Fill-48" sketch:type="MSShapeGroup" fill="#AF9358" d="M124.544,81.336c0,0-0.734-0.387-1.473-0.464
				c-0.744-0.106-1.38,0.114-1.38,0.114c0,0.018-0.319-0.058-0.827,0.01c-0.505,0.062-1.197,0.282-1.829,0.679
				c-0.636,0.388-1.193,0.933-1.553,1.388c-0.182,0.225-0.322,0.431-0.407,0.582c-0.092,0.147-0.144,0.232-0.144,0.232
				s0.031-0.094,0.085-0.258c0.048-0.168,0.136-0.397,0.267-0.675c0.255-0.549,0.691-1.25,1.286-1.847
				c0.586-0.603,1.337-1.073,1.97-1.313c0.319-0.115,0.595-0.198,0.797-0.225c0.201-0.037,0.315-0.058,0.315-0.058
				s0.969,0.163,1.69,0.679c0.364,0.24,0.678,0.53,0.876,0.767C124.413,81.18,124.544,81.336,124.544,81.336"/>
			<path id="Fill-49" sketch:type="MSShapeGroup" fill="#AF9358" d="M107.27,74.08c0,0-0.085-0.18-0.212-0.448
				c-0.144-0.254-0.375-0.556-0.651-0.777c-0.277-0.222-0.59-0.362-0.827-0.444c-0.243-0.075-0.407-0.105-0.407-0.105
				s-0.256-0.201-0.74-0.408c-0.479-0.214-1.196-0.409-1.949-0.48c-1.515-0.173-3.062,0.25-3.062,0.25s1.395-0.782,3.043-0.992
				c0.812-0.118,1.663-0.102,2.309,0.014c0.648,0.107,1.081,0.294,1.081,0.294s0.187,0.147,0.434,0.392
				c0.245,0.254,0.532,0.627,0.718,1.039c0.186,0.415,0.26,0.845,0.275,1.155C107.274,73.875,107.27,74.08,107.27,74.08"/>
			<path id="Fill-50" sketch:type="MSShapeGroup" fill="#AF9358" d="M107.27,80.109c0,0-0.085-0.18-0.212-0.448
				c-0.144-0.254-0.375-0.556-0.651-0.777c-0.277-0.222-0.59-0.362-0.827-0.444c-0.243-0.075-0.407-0.105-0.407-0.105
				s-0.256-0.199-0.74-0.408c-0.479-0.214-1.196-0.409-1.949-0.48c-1.515-0.173-3.062,0.25-3.062,0.25s1.395-0.782,3.043-0.992
				c0.812-0.118,1.663-0.102,2.309,0.014c0.648,0.107,1.081,0.295,1.081,0.295s0.187,0.145,0.434,0.391
				c0.245,0.254,0.532,0.627,0.718,1.039c0.186,0.415,0.26,0.844,0.275,1.153C107.274,79.904,107.27,80.109,107.27,80.109"/>
			<path id="Fill-51" sketch:type="MSShapeGroup" fill="#9B8867" d="M75.874,86.505c-0.722,0-1.308-0.587-1.308-1.311v-7.163
				l-3.342-2.232c-0.6-0.401-0.763-1.215-0.362-1.818s1.211-0.767,1.814-0.363L76.6,76.24c0.364,0.244,0.582,0.653,0.582,1.09v7.864
				C77.182,85.918,76.596,86.505,75.874,86.505"/>
			<path id="Fill-52" sketch:type="MSShapeGroup" fill="#9B8867" d="M56.252,81.262h-2.616V77.33c0-0.438,0.218-0.847,0.582-1.09
				l3.925-2.621l1.452,2.181l-3.342,2.232V81.262"/>
			<path id="Fill-53" sketch:type="MSShapeGroup" fill="#212121" d="M65.409,69.466c-5.057,0-9.157,1.467-9.157,3.277
				c0,1.81,4.1,3.277,9.157,3.277s9.157-1.467,9.157-3.277C74.566,70.933,70.466,69.466,65.409,69.466"/>
			<path id="Fill-54" sketch:type="MSShapeGroup" fill="#9B8867" d="M65.409,77.33c-5.04,0-10.465-1.435-10.465-4.587
				c0-3.152,5.425-4.587,10.465-4.587s10.465,1.435,10.465,4.587C75.874,75.895,70.449,77.33,65.409,77.33L65.409,77.33z
				 M65.409,70.777c-5.029,0-7.689,1.442-7.852,1.99c0.162,0.501,2.823,1.942,7.852,1.942s7.689-1.442,7.852-1.99
				C73.098,72.218,70.437,70.777,65.409,70.777L65.409,70.777z"/>
			<path id="Fill-55" sketch:type="MSShapeGroup" fill="#212121" d="M65.409,65.534c-5.057,0-9.157,1.467-9.157,3.277
				c0,1.81,4.1,3.277,9.157,3.277s9.157-1.467,9.157-3.277C74.566,67.001,70.466,65.534,65.409,65.534"/>
			<path id="Fill-56" sketch:type="MSShapeGroup" fill="#9B8867" d="M65.409,73.398c-5.04,0-10.465-1.435-10.465-4.587
				c0-3.152,5.425-4.587,10.465-4.587s10.465,1.435,10.465,4.587C75.874,71.963,70.449,73.398,65.409,73.398L65.409,73.398z
				 M65.409,66.845c-5.029,0-7.689,1.442-7.852,1.99c0.162,0.501,2.823,1.942,7.852,1.942s7.689-1.442,7.852-1.99
				C73.098,68.286,70.437,66.845,65.409,66.845L65.409,66.845z"/>
			<path id="Fill-57" sketch:type="MSShapeGroup" fill="#9B8867" d="M69.333,99.612h-2.616v-7.163l-3.342-2.232l1.452-2.181
				l3.925,2.621c0.364,0.244,0.582,0.651,0.582,1.09V99.612"/>
			<path id="Fill-58" sketch:type="MSShapeGroup" fill="#9B8867" d="M48.403,99.612h-2.616v-7.864c0-0.439,0.218-0.847,0.582-1.09
				l3.925-2.621l1.452,2.181l-3.342,2.232V99.612"/>
			<path id="Fill-59" sketch:type="MSShapeGroup" fill="#212121" d="M57.56,83.883c-5.057,0-9.157,1.467-9.157,3.277
				s4.1,3.277,9.157,3.277s9.157-1.467,9.157-3.277S62.617,83.883,57.56,83.883"/>
			<path id="Fill-60" sketch:type="MSShapeGroup" fill="#9B8867" d="M57.56,91.748c-5.04,0-10.465-1.435-10.465-4.587
				s5.425-4.587,10.465-4.587s10.465,1.435,10.465,4.587S62.6,91.748,57.56,91.748L57.56,91.748z M57.56,85.194
				c-5.029,0-7.689,1.442-7.852,1.99c0.162,0.501,2.823,1.942,7.852,1.942s7.689-1.442,7.852-1.99
				C65.249,86.636,62.588,85.194,57.56,85.194L57.56,85.194z"/>
			<path id="Fill-61" sketch:type="MSShapeGroup" fill="#212121" d="M57.56,79.951c-5.057,0-9.157,1.467-9.157,3.277
				c0,1.81,4.1,3.277,9.157,3.277s9.157-1.467,9.157-3.277C66.717,81.418,62.617,79.951,57.56,79.951"/>
			<path id="Fill-62" sketch:type="MSShapeGroup" fill="#9B8867" d="M57.56,87.816c-5.04,0-10.465-1.435-10.465-4.587
				s5.425-4.587,10.465-4.587s10.465,1.435,10.465,4.587S62.6,87.816,57.56,87.816L57.56,87.816z M57.56,81.262
				c-5.029,0-7.689,1.442-7.852,1.99c0.162,0.501,2.823,1.942,7.852,1.942s7.689-1.442,7.852-1.99
				C65.249,82.704,62.588,81.262,57.56,81.262L57.56,81.262z"/>
			<path id="Fill-63" sketch:type="MSShapeGroup" fill="#212121" d="M133.434,73.398l6.541,17.039l-1.308,3.932l1.308,1.311
				l2.616-1.311l2.616,1.311l3.925-1.311l2.616,1.311l3.925-1.311l2.616,1.311l2.616-1.311l2.616,1.311l1.308-1.311l-5.233-3.932
				v-3.932l-10.465-17.039l-2.616-1.311h-5.233l-1.308-1.311l-2.616,1.311l-3.925-1.311v1.311h-3.925v2.621L133.434,73.398"/>
			<path id="Fill-64" sketch:type="MSShapeGroup" fill="#9B8867" d="M163.521,96.99c-0.198,0-0.398-0.046-0.583-0.138l-2.032-1.018
				l-2.032,1.018c-0.368,0.183-0.802,0.183-1.17,0l-2.132-1.068l-3.41,1.139c-0.33,0.109-0.688,0.084-0.998-0.071l-2.132-1.068
				l-3.41,1.139c-0.33,0.109-0.688,0.084-0.998-0.071l-2.032-1.018l-2.032,1.018c-0.504,0.25-1.112,0.152-1.51-0.246l-1.308-1.311
				c-0.351-0.351-0.472-0.87-0.317-1.341l1.16-3.486l-6.223-16.21l-3.579-2.391c-0.364-0.242-0.582-0.651-0.582-1.09v-2.621
				c0-0.723,0.586-1.311,1.308-1.311h2.616c0-0.421,0.201-0.817,0.543-1.063c0.341-0.246,0.781-0.313,1.179-0.181l3.41,1.139
				l2.132-1.067c0.504-0.253,1.113-0.153,1.51,0.245l0.925,0.927h4.691c0.203,0,0.404,0.047,0.585,0.138l2.616,1.311
				c0.218,0.11,0.402,0.278,0.53,0.486l10.465,17.039c0.127,0.206,0.194,0.444,0.194,0.687v3.277l4.709,3.539
				c0.303,0.228,0.493,0.577,0.521,0.955c0.026,0.379-0.113,0.751-0.381,1.02l-1.308,1.311
				C164.196,96.858,163.861,96.99,163.521,96.99L163.521,96.99z M149.132,93.058c0.201,0,0.402,0.047,0.585,0.139l2.132,1.067
				l3.41-1.139c0.33-0.11,0.688-0.083,0.998,0.072l2.032,1.017l2.032-1.017c0.183-0.093,0.385-0.139,0.585-0.139l-2.093-1.573
				c-0.33-0.248-0.523-0.636-0.523-1.049v-3.561l-10.076-16.404l-2.007-1.005h-4.924c-0.347,0-0.68-0.139-0.925-0.384l-0.641-0.642
				l-1.774,0.887c-0.31,0.156-0.668,0.182-0.998,0.072l-2.292-0.765c-0.191,0.488-0.665,0.832-1.219,0.832h-2.616v0.609l3.342,2.232
				c0.225,0.151,0.398,0.367,0.496,0.62l6.541,17.039c0.109,0.283,0.115,0.596,0.02,0.885l-1.053,3.164l0.069,0.069l1.774-0.887
				c0.368-0.185,0.802-0.185,1.17,0l2.132,1.067l3.41-1.139C148.853,93.081,148.993,93.058,149.132,93.058L149.132,93.058z"/>
			<path id="Fill-65" sketch:type="MSShapeGroup" fill="#9B8867" d="M158.289,87.816h-13.082l-7.849-14.417l6.541,15.728
				L158.289,87.816"/>
			<path id="Fill-66" sketch:type="MSShapeGroup" fill="#9B8867" d="M61.484,94.369l2.616-1.311v5.243L61.484,94.369"/>
			<path id="Fill-67" sketch:type="MSShapeGroup" fill="#9B8867" d="M70.642,79.951l2.616-1.311v5.243L70.642,79.951"/>
			<path id="Fill-74" sketch:type="MSShapeGroup" fill="#212121" d="M68.805,33.505c0,0,7.895-8.477,12.683-2.427
				c5.467,6.909-9.045,15.83-9.045,15.83s-16.229,1.337-15.541-8.104C57.556,29.831,68.805,33.505,68.805,33.505"/>
			<path id="Fill-75" sketch:type="MSShapeGroup" fill="#9B8867" d="M68.805,33.505c0,0-1.417-0.433-3.601-0.574
				c-1.087-0.048-2.376-0.012-3.663,0.35c-1.283,0.349-2.535,1.125-3.239,2.303c-0.4,0.571-0.548,1.222-0.74,1.859
				c-0.044,0.358-0.089,0.714-0.133,1.066l-0.033,0.263c-0.001,0.024-0.018,0.131-0.008,0.087l0.001,0.123l0.008,0.488
				c0.034,1.291,0.534,2.379,1.139,3.144c0.616,0.769,1.334,1.237,1.847,1.526c0.517,0.29,0.832,0.426,0.832,0.426
				c1.643,0.83,3.528,1.274,5.422,1.539c1.896,0.257,3.856,0.339,5.76,0.25l-0.245,0.08c2.428-1.51,4.764-3.294,6.765-5.358
				c0.997-1.037,1.896-2.168,2.58-3.413c0.663-1.244,1.087-2.649,0.866-4.03c-0.434-2.714-3.252-5.121-6.143-4.486
				c-1.421,0.227-2.763,0.861-3.995,1.63C70.996,31.557,69.842,32.471,68.805,33.505c1.005-1.067,2.131-2.018,3.344-2.845
				c1.218-0.814,2.555-1.505,4.024-1.788c1.453-0.301,3.089-0.024,4.292,0.924c0.341,0.183,0.553,0.511,0.836,0.762
				c0.135,0.142,0.264,0.256,0.403,0.419l0.321,0.447c0.411,0.629,0.768,1.354,0.886,2.115c0.296,1.537-0.131,3.098-0.795,4.443
				c-0.687,1.347-1.591,2.556-2.588,3.661c-2.011,2.207-4.308,4.08-6.793,5.739c-0.071,0.047-0.148,0.072-0.226,0.079l-0.02,0.001
				c-2.017,0.159-4,0.135-6.006-0.069c-1.995-0.218-4.01-0.609-5.916-1.492c0,0-0.351-0.178-0.93-0.553
				c-0.572-0.374-1.396-0.982-2.102-1.983c-0.699-0.991-1.21-2.405-1.151-3.882l0.027-0.553l0.007-0.14
				c0.013-0.131,0.017-0.11,0.026-0.173l0.05-0.261c0.065-0.347,0.133-0.7,0.2-1.055c0.25-0.727,0.504-1.519,0.994-2.131
				c0.899-1.305,2.369-2.067,3.74-2.345c1.385-0.295,2.699-0.242,3.796-0.125C67.423,32.983,68.805,33.505,68.805,33.505"/>
			<path id="Fill-76" sketch:type="MSShapeGroup" fill="#212121" d="M145.363,32.777c0,0,7.738-1.37,7.87,3.872
				c0.15,5.983-11.359,4.888-11.359,4.888s-9.348-5.912-5.128-10.754C140.757,26.182,145.363,32.777,145.363,32.777"/>
			<path id="Fill-77" sketch:type="MSShapeGroup" fill="#9B8867" d="M145.363,32.777c0,0-0.606-0.806-1.744-1.756
				c-0.576-0.46-1.294-0.954-2.134-1.266c-0.833-0.318-1.801-0.388-2.627-0.034c-0.434,0.149-0.752,0.434-1.1,0.692l-0.621,0.663
				c-0.007,0.008-0.073,0.075-0.03,0.035l-0.042,0.068l-0.166,0.271c-0.109,0.177-0.216,0.35-0.321,0.52
				c-0.058,0.185-0.114,0.366-0.169,0.543c-0.165,0.336-0.068,0.703-0.126,1.005c0.089,1.274,0.725,2.043,0.682,2.042
				c1.086,2.177,3.132,4.02,5.205,5.506l-0.245-0.084c1.911,0.182,3.901,0.19,5.811-0.097c0.959-0.14,1.886-0.4,2.767-0.762
				c0.848-0.405,1.617-0.983,2.073-1.773l0.26-0.609c0.077-0.214,0.073-0.484,0.114-0.723l0.046-0.371l-0.031-0.322
				c-0.039-0.231-0.008-0.482-0.103-0.697c-0.208-0.924-0.871-1.695-1.724-2.143C149.403,32.591,147.311,32.561,145.363,32.777
				c1.941-0.301,4.028-0.391,5.904,0.46c0.922,0.427,1.716,1.254,1.996,2.277c0.115,0.242,0.098,0.51,0.152,0.765
				c0.016,0.142,0.043,0.229,0.048,0.417l-0.029,0.372c-0.03,0.25-0.01,0.493-0.082,0.75l-0.277,0.781
				c-0.496,0.971-1.354,1.662-2.27,2.152c-0.938,0.442-1.922,0.762-2.921,0.955c-2.004,0.395-4.016,0.482-6.062,0.384
				c-0.081-0.004-0.156-0.029-0.22-0.068l-0.025-0.016c-1.18-0.739-2.251-1.565-3.274-2.498c-1.009-0.94-1.961-1.984-2.66-3.277
				c0,0-0.133-0.236-0.286-0.699c-0.067-0.236-0.147-0.522-0.238-0.851c-0.037-0.346-0.082-0.741-0.086-1.167
				c0.092-0.423,0.054-0.916,0.293-1.355c0.097-0.224,0.196-0.455,0.297-0.691c0.141-0.207,0.3-0.406,0.455-0.613l0.235-0.308
				l0.06-0.079c0.08-0.085,0.06-0.058,0.096-0.092l0.68-0.602c0.45-0.299,0.937-0.63,1.468-0.759
				c1.057-0.337,2.191-0.125,3.052,0.304c0.876,0.425,1.562,1.003,2.105,1.526C144.84,31.922,145.363,32.777,145.363,32.777"/>
			<path id="Fill-78" sketch:type="MSShapeGroup" fill="#212121" d="M119.194,35.11c1.291-1.302,2.902-2.459,5.361-3.388
				c-1.788,0.271-3.328,0.406-4.715,0.744c-1.047,0.254-2.013,0.591-3.111,0.83c-1.414,0.307-2.555,1.012-3.838,1.526
				c-0.415,0.166-1.006,0.215-1.345,0.414c-1.007,0.59-2.064,1.176-2.853,1.859c-1.044,0.906-1.858,1.899-2.756,2.859
				c-0.311,0.333-0.581,0.679-0.87,1.018c-0.109-0.022-0.217-0.046-0.326-0.068c0.13-0.324,0.183-0.666,0.404-0.967
				c0.391-0.531,0.952-1.021,1.319-1.557c0.489-0.712,0.867-1.45,1.277-2.18c0.094-0.166,0.111-0.349,0.175-0.522
				c0.351-0.942,0.004-1.962,0.912-2.845c0.056-0.054,0.047-0.131,0.084-0.248c-0.281,0.01-0.523,0.018-0.704,0.025
				c0.139-0.789,0.273-1.544,0.4-2.3c0.007-0.038-0.063-0.08-0.098-0.122c-0.258,0.014-0.505,0.028-0.784,0.043
				c0.132-0.406,0.249-0.767,0.366-1.13c-0.315-0.042-0.557-0.075-0.801-0.107c0.42-0.899-0.178-1.741-1.189-1.805
				c-0.279-1.202-0.557-2.4-0.835-3.597c-0.332,0.29-0.379,0.583-0.454,0.874c-0.139,0.549-0.249,1.102-0.454,1.644
				c-0.209,0.552-0.525,1.089-0.78,1.636c-0.06,0.13-0.063,0.387-0.092,0.387c-1.188-0.01-0.443,0.484-0.556,0.734
				c-0.076,0.17,0.132,0.512,0.048,0.531c-1.268,0.274-0.25,0.853-0.46,1.152c-0.286,0.106-0.594,0.168-0.591,0.225
				c0.029,0.637-0.02,1.29,0.209,1.907c0.196,0.527-0.434,1.114,0.392,1.585c0.041,0.022,0.033,0.122,0.001,0.131
				c-0.882,0.242-0.28,0.587-0.203,0.906c0.133,0.547,0.222,1.098,0.317,1.649c0.114,0.658,0.094,1.333,0.353,1.971
				c0.256,0.632,0.786,1.227,1.197,1.839c-0.184,0.052-0.368,0.105-0.552,0.157c-1.625-3.384-4.664-6.258-9.259-8.578
				c-0.035,0.018-0.194,0.097-0.417,0.208c-0.355-0.604-1.223-0.678-2.045-0.919c-1.681-0.492-3.112-1.267-4.652-1.921
				c-0.232-0.098-0.493-0.174-0.74-0.26c-0.041,0.03-0.081,0.059-0.122,0.089c1.657,1.349,3.315,2.699,5.074,4.131
				c-0.324,0.084-0.564,0.144-0.697,0.178c0.355,0.501,1.882,0.482,1.159,1.202c0.47,0.185,1.028,0.328,1.387,0.566
				c0.559,0.372,0.916,0.843,1.474,1.215c0.931,0.621,1.937,1.207,2.946,1.789c0.644,0.372,1.303,0.744,2.037,1.054
				c1.264,0.531,3.096,0.617,3.847,1.713c-5.48-1.115-10.998-0.832-16.52-0.675c0.392,0.186,0.815,0.232,1.226,0.304
				c1.875,0.328,3.824,0.561,5.602,1.018c2.764,0.71,5.382,0.657,8.031-0.068c0.455-0.125,0.914-0.242,1.621-0.429
				c-0.95,0.889-1.719,1.608-2.489,2.328c0.105,0.038,0.209,0.076,0.314,0.115c0.812-0.506,1.626-1.011,2.573-1.598
				c0.136,0.826,0.256,1.562,0.391,2.378c1.52-0.646,0.309-1.456,0.719-2.216c0.623,0.641,1.15,1.184,1.676,1.725
				c0.164-0.041,0.328-0.083,0.492-0.125c-0.536-0.814-1.074-1.629-1.617-2.454c0.471,0.128,0.992,0.252,1.481,0.408
				c0.497,0.157,0.93,0.438,1.449,0.503c1.525,0.191,3.061-0.063,4.371-0.398c2.084-0.536,3.981-1.305,5.957-1.977
				c-0.008-0.052-0.017-0.106-0.025-0.16c-4.418,0.359-8.834,0.717-13.455,1.09c1.745-0.488,3.344-0.907,4.893-1.378
				c1.109-0.338,2.242-0.685,3.202-1.14c1.079-0.512,1.779-1.271,3.116-1.633c0.072-0.02,0.203-0.054,0.198-0.067
				c-0.269-0.691,0.952-0.497,1.444-0.809c-0.081-0.136-0.178-0.296-0.284-0.473c0.506-0.151,0.968-0.29,1.43-0.427
				C119.354,35.19,119.274,35.151,119.194,35.11"/>
			<path id="Fill-79" sketch:type="MSShapeGroup" fill="#9B8867" d="M118.806,35.11l0.238,0.118v0.005l-1.23,0.443l0.107-0.028
				l0.339,0.743c0.007,0.01,0.029,0.307,0.017,0.307h0.012c-0.266,0-0.563-0.093-0.848-0.031c-0.259,0.051-0.648-0.001-0.591,0.286
				l0.033,0.038c-0.058,0.134-0.082,0.03-0.122,0.066l-0.211,0.046c-0.14,0.041-0.276,0.083-0.412,0.136
				c-0.269,0.107-0.53,0.236-0.781,0.384c-0.504,0.295-0.973,0.649-1.495,0.938c-0.522,0.287-1.073,0.506-1.626,0.71
				c-2.225,0.79-4.503,1.367-6.755,2.055l-0.06-0.342l13.364-1.233c0.164-0.014,0.259,0.1,0.259,0.258v0.008l0.106,0.16
				c0.026,0.153-0.025,0.3-0.166,0.35l0.013,0.003c-2.151,0.756-4.273,1.655-6.554,2.197c-1.143,0.265-2.321,0.423-3.536,0.338
				c-0.268-0.017-0.636-0.052-0.945-0.169c-0.305-0.105-0.566-0.232-0.807-0.318c-0.502-0.153-1.083-0.291-1.621-0.438l0.509-0.704
				l1.642,2.437c0.152,0.225,0.093,0.531-0.132,0.683c-0.046,0.031-0.095,0.054-0.147,0.067l-0.012,0.004l-0.491,0.13
				c-0.175,0.046-0.353-0.008-0.474-0.128l-0.008-0.008l-1.694-1.708l0.839-0.117c-0.081,0.076,0.05,0.358,0.148,1.004
				c0.043,0.337-0.141,0.794-0.392,1.011c-0.245,0.242-0.485,0.345-0.721,0.461c-0.262,0.13-0.58,0.022-0.709-0.24
				c-0.022-0.046-0.038-0.093-0.046-0.14l-0.008-0.039l-0.416-2.374l0.876,0.398l-2.556,1.624c-0.161,0.102-0.352,0.118-0.518,0.06
				l-0.014-0.005l-0.315-0.113c-0.317-0.113-0.483-0.463-0.37-0.78c0.033-0.093,0.086-0.172,0.152-0.236l0.012-0.012l2.465-2.353
				l0.611,1.105c-1.368,0.371-2.806,0.834-4.318,0.984c-1.499,0.172-3.028,0.121-4.515-0.14c-1.414-0.307-2.603-0.634-3.952-0.836
				l-2-0.33l-1.001-0.174c-0.338-0.058-0.746-0.128-1.159-0.325c-0.349-0.163-0.501-0.579-0.338-0.929
				c0.115-0.248,0.361-0.396,0.616-0.404c5.497-0.13,11.133-0.384,16.661,0.776l-0.625,0.946c-0.421-0.633-1.546-0.889-2.628-1.194
				c-0.26-0.075-0.594-0.18-0.849-0.286c-0.349-0.155-0.525-0.267-0.795-0.402c-0.515-0.275-0.948-0.485-1.531-0.814l-2.883-1.777
				c-0.535-0.374-0.914-0.822-1.29-1.096c-0.323-0.27-0.837-0.384-1.409-0.612c-0.276-0.111-0.411-0.426-0.301-0.703
				c0.02-0.05,0.047-0.096,0.078-0.135l0.039-0.05c0.024-0.029,0.065-0.076,0.048-0.052c-0.009-0.009-0.038,0.18,0.025,0.261
				c0.106,0.119-0.029-0.013-0.162-0.05c-0.284-0.155-0.651-0.14-1.121-0.67c-0.181-0.204-0.162-0.516,0.042-0.697
				c0.06-0.055,0.132-0.092,0.205-0.11l0.055-0.013l0.697-0.174l-0.203,0.919l-5.051-4.159c-0.211-0.169-0.245-0.478-0.075-0.689
				c0.026-0.033,0.061-0.066,0.094-0.089l0.122-0.088c0.132-0.097,0.296-0.117,0.44-0.071l0.026,0.008
				c1.32,0.434,2.506,1.121,3.735,1.615c0.614,0.257,1.228,0.481,1.855,0.651c0.315,0.085,0.654,0.156,1.015,0.284
				c0.349,0.123,0.788,0.342,1.041,0.78l-0.585-0.173l0.417-0.206c0.128-0.064,0.279-0.058,0.399,0.001
				c3.828,1.953,7.489,4.781,9.399,8.812l-0.442-0.199l0.551-0.155l-0.208,0.569c-0.489-0.754-1.277-1.547-1.426-2.669
				c-0.085-0.515-0.095-0.992-0.186-1.43l-0.266-1.43c-0.017-0.1-0.018-0.076-0.098-0.21c-0.052-0.109-0.198-0.216-0.186-0.562
				c0.084-0.366,0.324-0.436,0.455-0.507c0.086-0.037,0.147-0.055,0.2-0.071l0.044-0.013c0.06-0.028-0.113,0.039-0.141,0.098
				c-0.039,0.052-0.042,0.072-0.05,0.094c-0.009,0.072-0.029,0.068,0.031,0.193c0.135,0.144,0.094,0.076,0.076,0.077l-0.048-0.03
				l-0.093-0.063c-0.063-0.054-0.126-0.098-0.183-0.166c-0.12-0.121-0.213-0.312-0.239-0.49c-0.05-0.366,0.063-0.624,0.071-0.803
				c0.005-0.101,0.01-0.11-0.022-0.219c-0.047-0.13-0.081-0.261-0.109-0.393c-0.054-0.263-0.075-0.524-0.084-0.775l0.195-0.729
				l0.209-0.046v-0.034c0,0.008-0.217-0.005-0.203-0.092c0.093-0.236,0.05-0.199,0.077-0.236l0.025-0.037l0.174-0.068l0.317-0.105
				l-0.154,0.114c-0.035,0.222-0.041-0.016-0.156-0.177c-0.039-0.101-0.101-0.22-0.088-0.408c0.016-0.193,0.143-0.357,0.252-0.433
				c0.215-0.156,0.441-0.203,0.593-0.242c0,0,0.038-0.009,0.016-0.004c-0.144,0.042-0.187,0.186-0.19,0.218
				c-0.005,0.084-0.003,0.05-0.003,0.05l-0.03-0.11c-0.022-0.101-0.067-0.181-0.044-0.393c0.017-0.09,0.017-0.068,0.031-0.118
				c-0.013,0.021-0.012,0.056-0.012,0.056c0.005,0.026,0-0.003-0.012-0.028c-0.021-0.062-0.072-0.14-0.109-0.292
				c-0.02-0.072-0.026-0.198,0.03-0.322c0.064-0.122,0.152-0.182,0.229-0.223c0.139-0.062,0.249-0.236,0.355-0.248
				c0.113-0.013,0.204-0.172,0.288-0.172h0.056c0.063,0-0.119,0.145-0.203,0.25c-0.11,0.18-0.038,0.153-0.056,0.166l0.021-0.09
				c0.033-0.239,0.15-0.387,0.212-0.532l0.457-0.935c0.065-0.149,0.175-0.33,0.204-0.448l0.143-0.502l0.285-1.009
				c0.052-0.278,0.215-0.786,0.549-1.035l0.02-0.013c0.118-0.088,0.285-0.063,0.373,0.055c0.022,0.031,0.037,0.066,0.046,0.101
				l0.815,3.6l-0.226-0.191c0.483,0.031,0.994,0.244,1.299,0.679c0.318,0.431,0.305,1.035,0.086,1.475l-0.182-0.334l0.801,0.111
				c0.126,0.017,0.215,0.132,0.199,0.258l-0.009,0.043L107.94,30.3l-0.225-0.294l0.782-0.039c0.063-0.003,0.119,0.02,0.161,0.059
				l0.02,0.018l0.038,0.037c0.017,0.042,0.078,0.008,0.113,0.235l-0.03,0.178l-0.386,2.152l-0.212-0.244l0.704-0.022
				c0.113-0.003,0.207,0.085,0.211,0.198c0,0.018-0.001,0.037-0.005,0.052l-0.004,0.016l-0.03,0.127
				c0.009,0.043-0.097,0.214-0.127,0.225c-0.06,0.067-0.127,0.128-0.178,0.202c-0.113,0.139-0.198,0.298-0.264,0.464
				c-0.136,0.334-0.169,0.716-0.213,1.111c-0.026,0.388-0.15,0.84-0.267,1.182c-0.135,0.46-0.395,0.735-0.577,1.093
				c-0.426,0.657-0.74,1.409-1.315,2.001c-0.267,0.296-0.546,0.578-0.781,0.874c-0.254,0.279-0.317,0.634-0.47,1.034l-0.111-0.207
				l0.324,0.068l-0.143,0.048c0.597-0.713,1.227-1.398,1.856-2.077c0.628-0.685,1.274-1.364,2.004-1.958
				c0.74-0.585,1.557-1.042,2.359-1.506c0.372-0.27,0.893-0.402,1.323-0.489c0.433-0.105,0.853-0.322,1.275-0.503
				c0.841-0.384,1.685-0.797,2.597-1.033l2.695-0.696c1.787-0.524,3.659-0.642,5.486-0.919c0.018-0.003,0.035,0.009,0.039,0.028
				c0.003,0.017-0.008,0.031-0.022,0.038c-1.994,0.73-3.872,1.832-5.373,3.355c1.485-1.539,3.355-2.665,5.349-3.42l0.017,0.066
				c-1.831,0.298-3.69,0.434-5.468,0.975l-2.686,0.725c-0.887,0.24-1.718,0.655-2.557,1.049c-0.425,0.187-0.835,0.409-1.303,0.53
				c-0.475,0.11-0.873,0.198-1.265,0.48c-0.797,0.472-1.601,0.937-2.313,1.513c-0.705,0.586-1.337,1.262-1.956,1.952
				c-0.624,0.688-1.244,1.378-1.833,2.094c-0.034,0.042-0.088,0.059-0.136,0.048l-0.008-0.001l-0.324-0.066
				c-0.084-0.017-0.137-0.097-0.12-0.18l0.009-0.028c0.126-0.334,0.215-0.792,0.5-1.114c0.254-0.325,0.53-0.608,0.788-0.902
				c0.532-0.554,0.835-1.299,1.258-1.97c0.177-0.343,0.453-0.688,0.525-0.999c0.13-0.409,0.213-0.722,0.243-1.128
				c0.041-0.387,0.068-0.807,0.225-1.212c0.077-0.201,0.181-0.396,0.314-0.565c0.063-0.09,0.139-0.165,0.212-0.244
				c0.162,0.045-0.038-0.01,0.016-0.029c0.007-0.037,0.018-0.102,0.038-0.161l0.2,0.265l-0.702,0.029
				c-0.114,0.005-0.211-0.083-0.215-0.198l0.003-0.045l0.375-2.229l0.007-0.038l0.097-0.02l0.095-0.009v-0.005
				c0,0.069,0.01-0.127,0.094-0.127h-0.094v0.157c0-0.034-0.207,0.159-0.162,0.1l-0.073-0.072l0.179,0.077l-0.782,0.047
				c-0.124,0.008-0.23-0.087-0.237-0.21c-0.003-0.029,0.003-0.059,0.01-0.084l0.36-1.131l0.188,0.3l-0.801-0.104
				c-0.128-0.016-0.218-0.134-0.203-0.262c0.003-0.024,0.01-0.05,0.021-0.071c0.156-0.336,0.152-0.717-0.056-0.995
				c-0.2-0.282-0.561-0.44-0.935-0.461c-0.111-0.007-0.201-0.089-0.226-0.193l-0.854-3.591l0.438,0.142
				c-0.229,0.199-0.289,0.398-0.381,0.796l-0.412,1.52c-0.063,0.218-0.145,0.333-0.217,0.505l-0.446,0.949
				c-0.073,0.174-0.164,0.304-0.169,0.421l-0.018,0.13c-0.027,0.054,0.041,0.199-0.09,0.417c-0.089,0.107-0.276,0.303-0.218,0.303
				h-0.058c-0.092,0-0.174-0.198-0.235-0.19c-0.067,0.007-0.13-0.076-0.152-0.068c0.016,0.018-0.017-0.096-0.054-0.128
				c-0.017-0.022-0.026-0.056-0.043-0.063c-0.013,0.013,0.12-0.007,0.154-0.012c0.001,0.018,0.039,0.088,0.082,0.189
				c0.02,0.055,0.048,0.107,0.055,0.22c0.007,0.046-0.004,0.119-0.026,0.185l-0.009,0.024c-0.252-0.147-0.068-0.039-0.124-0.072
				l0.003,0.003l0.004,0.007l0.017,0.022c0.004,0.021,0.039,0.018,0.063,0.016c0.094-0.021,0.034,0.06,0.078,0.13l0.041,0.143
				c0.005,0.043,0.024,0.052,0.012,0.178c-0.004,0.054-0.059,0.22-0.224,0.269l-0.048,0.014c-0.184,0.045-0.303,0.088-0.373,0.139
				c-0.01,0.008-0.024,0.021-0.021,0.014c-0.058-0.031-0.03-0.014-0.014-0.017c0.041-0.008,0.02,0.039,0.056,0.098l0.12,0.242
				c0.034,0.083,0.139,0.304-0.02,0.553c-0.037,0.055-0.09,0.094-0.149,0.113l-0.36,0.119l-0.144-0.265
				c0.039,0.106-0.136-0.552-0.171-0.552h-0.004c0.133,0,0.088,0.64,0.088,0.617v0.041l0.107,0.045l0.075,0.726
				c0.012,0.233,0.059,0.456,0.105,0.668c0.025,0.105,0.065,0.207,0.102,0.305c0.051,0.121,0.088,0.355,0.068,0.497
				c-0.031,0.3-0.095,0.518-0.067,0.637c0.013,0.059,0.029,0.1,0.081,0.151c0.018,0.025,0.059,0.05,0.086,0.076l0.059,0.037
				l0.029,0.018c0.005,0.018-0.004-0.038,0.145,0.134c0.092,0.177,0.073,0.237,0.048,0.368c-0.013,0.037-0.021,0.071-0.069,0.135
				c-0.038,0.071-0.225,0.143-0.179,0.121l-0.043,0.013c-0.061,0.018-0.116,0.038-0.141,0.051c-0.033,0.012-0.067,0.035-0.071,0.041
				c-0.021-0.018-0.144-0.114-0.115-0.085c0.018,0.003,0.051,0.001,0.126-0.017c0.026-0.013,0.013,0.007,0.024,0.014l0.073,0.118
				c0.054,0.066,0.188,0.3,0.2,0.446l0.281,1.426c0.109,0.512,0.124,1.011,0.205,1.451c0.105,0.861,0.769,1.54,1.341,2.374
				c0.115,0.169,0.073,0.401-0.097,0.518c-0.033,0.022-0.075,0.041-0.111,0.051l-0.549,0.161c-0.178,0.051-0.365-0.025-0.443-0.186
				c-1.845-3.793-5.369-7.019-9.121-8.329h0.398l-0.415,0.197l-0.018,0.003c-0.207,0.105-0.46,0.02-0.566-0.186
				c-0.171-0.332-0.849-0.472-1.515-0.633c-0.683-0.177-1.343-0.413-1.982-0.672c-1.286-0.503-2.47-1.172-3.732-1.566l0.466-0.062
				l-0.12,0.089l0.02-0.78l5.095,4.106c0.226,0.181,0.262,0.512,0.08,0.738c-0.073,0.092-0.177,0.153-0.281,0.181l-0.696,0.181
				l0.235-0.773c0.101-0.066,0.06-0.048,0.072-0.045l0.041,0.029c0.041,0.024,0.092,0.051,0.156,0.079l0.459,0.181
				c0.174,0.098,0.385,0.092,0.685,0.499c0.157,0.225,0.115,0.607,0.021,0.746c-0.089,0.181-0.173,0.254-0.259,0.355l-0.183-0.887
				c0.459,0.191,1.082,0.301,1.656,0.729c0.527,0.391,0.884,0.809,1.278,1.066l2.858,1.718l1.443,0.744
				c0.23,0.115,0.543,0.284,0.705,0.353c0.264,0.106,0.467,0.163,0.744,0.242c0.522,0.147,1.082,0.271,1.659,0.486
				c0.566,0.206,1.209,0.535,1.652,1.157c0.195,0.273,0.132,0.653-0.14,0.848c-0.141,0.101-0.311,0.132-0.47,0.102l-0.016-0.004
				c-5.343-1.064-10.86-0.767-16.378-0.575l0.279-1.333c0.37,0.176,1.154,0.244,1.791,0.362l2.005,0.309
				c1.33,0.181,2.76,0.547,3.989,0.8c1.35,0.266,2.731,0.342,4.101,0.215c1.371-0.105,2.707-0.503,4.126-0.856l0.018-0.004
				c0.348-0.087,0.7,0.126,0.785,0.473c0.06,0.24-0.022,0.481-0.191,0.636l-2.513,2.302l-0.207-1.028l0.31,0.119l-0.531,0.054
				l2.589-1.57l0.012-0.007c0.271-0.165,0.624-0.077,0.789,0.194c0.039,0.066,0.064,0.139,0.076,0.211l0.366,2.382l-0.761-0.419
				c0.156-0.072,0.323-0.153,0.39-0.225c0.071-0.08,0.072-0.062,0.078-0.166c-0.003-0.111-0.061-0.309-0.115-0.571
				c-0.054-0.252-0.072-0.659,0.12-0.995l0.009-0.016c0.143-0.25,0.46-0.337,0.71-0.193c0.044,0.025,0.085,0.058,0.119,0.093
				l1.657,1.743l-0.481-0.136l0.493-0.119l-0.292,0.752l-1.591-2.471l-0.008-0.013c-0.137-0.214-0.076-0.498,0.137-0.637
				c0.116-0.075,0.256-0.09,0.379-0.054c0.565,0.168,1.101,0.301,1.69,0.498l0.785,0.33c0.232,0.09,0.437,0.111,0.739,0.14
				c1.075,0.1,2.199-0.02,3.291-0.25c2.203-0.472,4.339-1.315,6.529-2.035l-0.212,0.353l-0.024-0.16l0.338,0.265l-13.466,0.949
				c-0.095,0.007-0.179-0.064-0.186-0.16c-0.007-0.084,0.048-0.159,0.126-0.182c2.259-0.637,4.558-1.169,6.782-1.906
				c0.553-0.191,1.103-0.398,1.617-0.667c0.514-0.27,0.993-0.617,1.511-0.906c0.258-0.145,0.526-0.275,0.805-0.379
				c0.139-0.052,0.279-0.101,0.423-0.139l0.212-0.059c0.022,0.009,0.098-0.062,0.063,0.01l-0.029-0.106
				c-0.047-0.177,0.092-0.341,0.232-0.395c0.141-0.063,0.289-0.09,0.433-0.117c0.288-0.055,0.59-0.077,0.84-0.218l-0.008,0.033
				l-0.28-0.474c-0.005-0.009-0.003-0.021,0.007-0.026l-0.19-0.001l1.24-0.413v0.005L118.806,35.11"/>
			<path id="Fill-80" sketch:type="MSShapeGroup" fill="#9B8867" d="M13.082,1.311v31.456l1.354-15.728L13.082,1.311"/>
			<path id="Fill-81" sketch:type="MSShapeGroup" fill="#9B8867" d="M3.925,9.175l7.849,7.864h3.925l7.849-7.864l-9.157,6.553
				h-1.308L3.925,9.175"/>
			<path id="Fill-82" sketch:type="MSShapeGroup" fill="#9B8867" d="M3.925,24.903l7.849-7.864h3.925l7.849,7.864L14.39,18.35
				h-1.308L3.925,24.903"/>
			<path id="Fill-83" sketch:type="MSShapeGroup" fill="#9B8867" d="M73.258,82.573v31.456l1.354-15.728L73.258,82.573"/>
			<path id="Fill-84" sketch:type="MSShapeGroup" fill="#9B8867" d="M64.101,90.437l7.849,7.864h3.925l7.849-7.864l-9.157,6.553
				h-1.308L64.101,90.437"/>
			<path id="Fill-85" sketch:type="MSShapeGroup" fill="#9B8867" d="M64.101,106.165l7.849-7.864h3.925l7.849,7.864l-9.157-6.553
				h-1.308L64.101,106.165"/>
			<path id="Fill-86" sketch:type="MSShapeGroup" fill="#9B8867" d="M3.925,129.757l4.07-5.243l-4.07-5.243l5.233,4.078l5.233-4.078
				l-4.07,5.243l4.07,5.243l-5.233-4.078L3.925,129.757"/>
			<path id="Fill-87" sketch:type="MSShapeGroup" fill="#9B8867" d="M190.994,10.485l4.07-5.243L190.994,0l5.233,4.078L201.459,0
				l-4.07,5.243l4.07,5.243l-5.233-4.078L190.994,10.485"/>
			<path id="Fill-88" sketch:type="MSShapeGroup" fill="#9B8867" d="M81.107,22.282l4.07-5.243l-4.07-5.243l5.233,4.078l5.233-4.078
				l-4.07,5.243l4.07,5.243l-5.233-4.078L81.107,22.282"/>
			<path id="Fill-89" sketch:type="MSShapeGroup" fill="#9B8867" d="M183.145,104.854l-2.616,27.524l2.616-6.553V104.854"/>
			<path id="Fill-90" sketch:type="MSShapeGroup" fill="#9B8867" d="M23.547,104.854l2.616,24.903l-2.616-7.864V104.854"/>
			<path id="Fill-91" sketch:type="MSShapeGroup" fill="#9B8867" d="M24.855,95.68l23.547-34.078l-14.39,18.35L24.855,95.68"/>
			<path id="Fill-92" sketch:type="MSShapeGroup" fill="#9B8867" d="M45.786,51.117L26.164,17.039l2.616-9.175L24.855,18.35
				L45.786,51.117"/>
			<path id="Fill-93" sketch:type="MSShapeGroup" fill="#9B8867" d="M58.868,1.311h103.346L115.119,0L58.868,1.311"/>
			<path id="Fill-94" sketch:type="MSShapeGroup" fill="#9B8867" d="M179.22,7.864l1.308,7.864v-5.243L179.22,7.864"/>
			<path id="Fill-95" sketch:type="MSShapeGroup" fill="#9B8867" d="M18.314,107.476l1.308,11.796l-2.616-7.864L18.314,107.476"/>
		</g>
		<path fill="#9D906A" d="M734.552,291.927h0.216c0.334,0,0.649,0.087,0.649,0.487c0,0.129-0.071,0.28-0.19,0.336v0.005
			c0.209,0.038,0.355,0.242,0.355,0.449c0,0.355-0.303,0.496-0.616,0.496h-0.414V291.927z M734.773,292.712h0.056
			c0.209,0,0.381-0.042,0.381-0.296c0-0.249-0.169-0.292-0.376-0.292h-0.061V292.712z M734.773,293.502h0.169
			c0.204,0,0.418-0.061,0.418-0.313c0-0.249-0.254-0.301-0.451-0.301h-0.136V293.502z M737.678,292.813
			c0,0.527-0.416,0.924-0.928,0.924c-0.513,0-0.929-0.397-0.929-0.924c0-0.508,0.421-0.924,0.929-0.924
			C737.257,291.889,737.678,292.305,737.678,292.813z M737.457,292.813c0-0.39-0.291-0.717-0.707-0.717
			c-0.416,0-0.708,0.327-0.708,0.717c0,0.404,0.324,0.717,0.708,0.717C737.132,293.53,737.457,293.217,737.457,292.813z
			 M737.908,291.927h0.252l0.362,0.646l0.385-0.646h0.252l-0.51,0.844l0.538,0.928h-0.247l-0.418-0.726l-0.435,0.726h-0.247
			l0.557-0.928L737.908,291.927z M742.216,279.256v0.193h-0.202v0.259h-0.212v-0.259h-0.874l1.086-1.589v1.396H742.216z
			 M741.803,278.525h-0.005l-0.498,0.731h0.503V278.525z M742.489,278.138l0.122-0.202h0.397v1.772h-0.212v-1.57H742.489z
			 M744.172,278.138l-0.11,0.364l0.125-0.007c0.343,0,0.569,0.294,0.569,0.621c0,0.374-0.291,0.63-0.656,0.63
			c-0.219,0-0.437-0.115-0.541-0.31l0.165-0.155c0.054,0.15,0.235,0.263,0.393,0.263c0.24,0,0.428-0.197,0.428-0.435
			c0-0.228-0.195-0.421-0.423-0.421c-0.125,0-0.254,0.059-0.331,0.158h-0.042l0.273-0.91h0.71v0.202H744.172z M732.459,286.933
			l-1.019,2.396h-1.03l3.897-8.847l3.796,8.847h-1.041l-0.997-2.396H732.459z M734.285,282.677l-1.445,3.382h2.856L734.285,282.677z
			 M739.626,287c0,0.885,0.101,1.646,1.187,1.646S742,287.885,742,287v-2.934h0.896v3.035c0,1.4-0.526,2.374-2.083,2.374
			c-1.557,0-2.083-0.974-2.083-2.374v-3.035h0.896V287z M747.346,275.301v21.021h-21.021v-21.021H747.346 M748.18,274.467h-22.689
			v22.689h22.689V274.467L748.18,274.467z"/>
	</g>
</g>
</svg>
