<?xml version="1.0" encoding="utf-8"?>
<!-- Generator: Adobe Illustrator 17.0.0, SVG Export Plug-In . SVG Version: 6.00 Build 0)  -->
<!DOCTYPE svg PUBLIC "-//W3C//DTD SVG 1.1//EN" "http://www.w3.org/Graphics/SVG/1.1/DTD/svg11.dtd">
<svg version="1.1" id="Слой_1" xmlns:sketch="http://www.bohemiancoding.com/sketch/ns"
	 xmlns="http://www.w3.org/2000/svg" xmlns:xlink="http://www.w3.org/1999/xlink" x="0px" y="0px" width="236px" height="162px"
	 viewBox="0 0 236 162" enable-background="new 0 0 236 162" xml:space="preserve">
<title>Imported Layers</title>
<desc>Created with Sketch.</desc>
<g id="Page-1" sketch:type="MSPage">
	<g id="Shop-_x2F_-Sign-UP-4" transform="translate(-621.000000, -144.000000)" sketch:type="MSArtboardGroup">
		<g id="Imported-Layers" transform="translate(621.000000, 144.000000)" sketch:type="MSLayerGroup">
			<path id="Fill-1" sketch:type="MSShapeGroup" fill="#AF9358" d="M94.494,22.091h-5.877c-0.811,0-1.469-0.66-1.469-1.473
				c0-0.813,0.658-1.473,1.469-1.473h5.877c0.811,0,1.469,0.66,1.469,1.473C95.963,21.431,95.305,22.091,94.494,22.091"/>
			<path id="Fill-2" sketch:type="MSShapeGroup" fill="#AF9358" d="M219.37,99.888c-0.812,0-1.469-0.66-1.469-1.473V86.459
				c0-0.813,0.657-1.473,1.469-1.473c0.812,0,1.469,0.66,1.469,1.473v11.956C220.84,99.228,220.183,99.888,219.37,99.888
				L219.37,99.888z M218.664,79.05c-0.607,0-1.172-0.38-1.387-0.984c-1.186-3.378-3.943-5.978-7.375-6.956
				c-0.782-0.222-1.234-1.037-1.012-1.819c0.222-0.783,1.031-1.236,1.816-1.015c4.346,1.239,7.841,4.532,9.344,8.81
				c0.27,0.767-0.132,1.608-0.898,1.879C218.99,79.022,218.825,79.05,218.664,79.05L218.664,79.05z M201.403,70.691h-11.925
				c-0.811,0-1.469-0.66-1.469-1.473c0-0.813,0.658-1.473,1.469-1.473h11.925c0.812,0,1.471,0.66,1.471,1.473
				C202.873,70.031,202.215,70.691,201.403,70.691L201.403,70.691z M180.534,70.691c-4.57,0-8.806-2.175-11.425-5.819
				c-0.473-0.658-0.325-1.579,0.333-2.056c0.658-0.474,1.579-0.324,2.051,0.334c2.067,2.876,5.412,4.595,8.946,4.595
				c0.812,0,1.518,0.66,1.518,1.473C181.956,70.031,181.346,70.691,180.534,70.691L180.534,70.691z M167.951,57.018
				c-0.812,0-1.469-0.66-1.469-1.473v-8.418h-4.074c-0.811,0-1.468-0.66-1.468-1.473s0.657-1.473,1.468-1.473h4.074V43.59
				c0-0.813,0.657-1.473,1.469-1.473c0.812,0,1.469,0.66,1.469,1.473v0.592h4.916c0.811,0,1.469,0.66,1.469,1.473
				s-0.658,1.473-1.469,1.473h-4.916v8.418C169.42,56.358,168.763,57.018,167.951,57.018L167.951,57.018z M195.205,47.127H183.28
				c-0.812,0-1.469-0.66-1.469-1.473s0.657-1.473,1.469-1.473h11.925c0.811,0,1.469,0.66,1.469,1.473S196.016,47.127,195.205,47.127
				L195.205,47.127z M153.465,47.127h-11.926c-0.812,0-1.469-0.66-1.469-1.473s0.657-1.473,1.469-1.473h11.926
				c0.811,0,1.469,0.66,1.469,1.473S154.276,47.127,153.465,47.127L153.465,47.127z M132.594,47.127h-11.928
				c-0.811,0-1.469-0.66-1.469-1.473s0.658-1.473,1.469-1.473h11.928c0.811,0,1.469,0.66,1.469,1.473S133.405,47.127,132.594,47.127
				L132.594,47.127z M111.724,47.127H99.797c-0.811,0-1.469-0.66-1.469-1.473s0.658-1.473,1.469-1.473h11.926
				c0.811,0,1.469,0.66,1.469,1.473S112.535,47.127,111.724,47.127L111.724,47.127z M90.853,47.127H78.927
				c-0.811,0-1.469-0.66-1.469-1.473s0.658-1.473,1.469-1.473h11.926c0.811,0,1.469,0.66,1.469,1.473S91.664,47.127,90.853,47.127
				L90.853,47.127z M69.983,47.127H58.056c-0.811,0-1.469-0.66-1.469-1.473s0.658-1.473,1.469-1.473h11.926
				c0.811,0,1.469,0.66,1.469,1.473S70.794,47.127,69.983,47.127L69.983,47.127z M49.112,47.127h-2.365
				c-3.623,0-7.056-1.386-9.67-3.901c-0.583-0.564-0.604-1.496-0.041-2.082c0.563-0.586,1.494-0.604,2.077-0.041
				c2.063,1.985,4.773,3.079,7.634,3.079h2.365c0.811,0,1.469,0.66,1.469,1.473S49.923,47.127,49.112,47.127L49.112,47.127z
				 M203.912,45.675c-0.527,0-1.036-0.284-1.3-0.783c-0.381-0.717-0.107-1.608,0.61-1.99c3.16-1.68,5.318-4.798,5.774-8.34
				c0.104-0.806,0.82-1.38,1.645-1.272c0.805,0.105,1.372,0.842,1.269,1.649c-0.579,4.487-3.311,8.439-7.312,10.564
				C204.379,45.621,204.144,45.675,203.912,45.675L203.912,45.675z M167.951,36.097c-0.812,0-1.469-0.66-1.469-1.473V22.668
				c0-0.813,0.657-1.473,1.469-1.473c0.812,0,1.469,0.66,1.469,1.473v11.956C169.42,35.437,168.763,36.097,167.951,36.097
				L167.951,36.097z M34.308,35.728c-0.754,0-1.394-0.576-1.462-1.342c-0.037-0.412-0.056-0.829-0.056-1.25
				c0-4.103,1.788-7.985,4.904-10.649c0.619-0.529,1.544-0.455,2.071,0.165c0.526,0.619,0.454,1.548-0.165,2.075
				c-2.461,2.105-3.873,5.169-3.873,8.409c0,0.333,0.015,0.661,0.044,0.987c0.072,0.811-0.524,1.526-1.333,1.599
				C34.396,35.725,34.35,35.728,34.308,35.728L34.308,35.728z M210.556,27.262c-0.812,0-1.469-0.66-1.469-1.473v-4.434
				c0-2.241-0.666-4.399-1.926-6.241c-0.458-0.67-0.289-1.586,0.381-2.047c0.668-0.459,1.584-0.29,2.042,0.381
				c1.598,2.334,2.442,5.068,2.442,7.907v4.434C212.025,26.602,211.368,27.262,210.556,27.262L210.556,27.262z M79.673,22.091
				H67.747c-0.811,0-1.469-0.66-1.469-1.473c0-0.813,0.658-1.473,1.469-1.473h11.926c0.811,0,1.469,0.66,1.469,1.473
				C81.142,21.431,80.484,22.091,79.673,22.091L79.673,22.091z M58.803,22.091H46.876c-0.811,0-1.469-0.66-1.469-1.473
				c0-0.813,0.658-1.473,1.469-1.473h11.926c0.811,0,1.469,0.66,1.469,1.473C60.272,21.431,59.614,22.091,58.803,22.091
				L58.803,22.091z M170.206,15.645c-0.291,0-0.585-0.087-0.842-0.268c-0.664-0.467-0.826-1.386-0.358-2.052
				c2.597-3.71,6.845-5.94,11.361-5.962h0.007c0.808,0,1.465,0.654,1.469,1.465c0.004,0.813-0.649,1.476-1.462,1.48
				c-3.566,0.018-6.918,1.778-8.972,4.71C171.124,15.427,170.669,15.645,170.206,15.645L170.206,15.645z M201.212,10.71
				c-0.122,0-0.247-0.016-0.37-0.049c-0.902-0.233-1.833-0.352-2.774-0.352h-8.749c-0.812,0-1.469-0.66-1.469-1.473
				s0.657-1.473,1.469-1.473h8.749c1.189,0,2.37,0.15,3.511,0.448c0.785,0.203,1.256,1.007,1.052,1.794
				C202.461,10.269,201.864,10.71,201.212,10.71L201.212,10.71z"/>
			<path id="Fill-3" sketch:type="MSShapeGroup" fill="#AF9358" d="M219.37,114.873c-0.812,0-1.469-0.66-1.469-1.473v-5.891
				c0-0.813,0.657-1.473,1.469-1.473c0.812,0,1.469,0.66,1.469,1.473v5.891C220.84,114.213,220.183,114.873,219.37,114.873"/>
			<path id="Fill-4" sketch:type="MSShapeGroup" fill="#212121" d="M111.261,1.473c-10.072,0-18.236,8.184-18.236,18.281
				c0,16.936,18.236,31.185,18.236,31.185s18.236-14.249,18.236-31.185C129.497,9.657,121.333,1.473,111.261,1.473L111.261,1.473z
				 M111.261,28.356c-4.739,0-8.581-3.851-8.581-8.602s3.842-8.602,8.581-8.602c4.739,0,8.581,3.851,8.581,8.602
				S116.001,28.356,111.261,28.356L111.261,28.356z"/>
			<path id="Fill-5" sketch:type="MSShapeGroup" fill="#9B8867" d="M111.261,52.411c-0.319,0-0.638-0.103-0.904-0.311
				c-0.767-0.599-18.802-14.891-18.802-32.347C91.556,8.861,100.395,0,111.261,0c10.867,0,19.706,8.861,19.706,19.754
				c0,17.456-18.035,31.748-18.802,32.347C111.899,52.308,111.58,52.411,111.261,52.411L111.261,52.411z M111.261,2.945
				c-9.245,0-16.767,7.54-16.767,16.808c0,13.883,13.159,26.166,16.767,29.27c3.608-3.105,16.767-15.387,16.767-29.27
				C128.028,10.486,120.506,2.945,111.261,2.945L111.261,2.945z M111.261,29.829c-5.542,0-10.05-4.52-10.05-10.075
				s4.509-10.075,10.05-10.075c5.542,0,10.052,4.52,10.052,10.075S116.803,29.829,111.261,29.829L111.261,29.829z M111.261,12.624
				c-3.921,0-7.112,3.199-7.112,7.129s3.191,7.129,7.112,7.129c3.923,0,7.114-3.199,7.114-7.129S115.184,12.624,111.261,12.624
				L111.261,12.624z"/>
			<path id="Fill-6" sketch:type="MSShapeGroup" fill="#212121" d="M204.679,128.127H31.321L1.938,157.582h232.123L204.679,128.127"
				/>
			<path id="Fill-7" sketch:type="MSShapeGroup" fill="#AF9358" d="M234.062,159.055H1.938c-0.594,0-1.13-0.359-1.357-0.909
				c-0.228-0.551-0.101-1.184,0.319-1.605l29.383-29.455c0.275-0.277,0.649-0.432,1.039-0.432h173.358
				c0.391,0,0.764,0.155,1.039,0.432l29.383,29.455c0.42,0.421,0.547,1.054,0.319,1.605
				C235.193,158.695,234.655,159.055,234.062,159.055L234.062,159.055z M5.485,156.109h225.03L204.071,129.6H31.929L5.485,156.109
				L5.485,156.109z"/>
			<path id="Fill-8" sketch:type="MSShapeGroup" fill="#9B8867" d="M112.123,153.164l5.713-7.364l-5.713-7.364l7.346,5.727
				l7.346-5.727l-5.713,7.364l5.713,7.364l-7.346-5.727L112.123,153.164"/>
			<path id="Fill-9" sketch:type="MSShapeGroup" fill="#9B8867" d="M56.296,27.982l6.285-8.1l-6.285-8.1l8.08,6.3l8.08-6.3
				l-6.285,8.1l6.285,8.1l-8.08-6.3L56.296,27.982"/>
			<path id="Fill-10" sketch:type="MSShapeGroup" fill="#9B8867" d="M141.506,35.345l6.285-8.1l-6.285-8.1l8.08,6.3l8.08-6.3
				l-6.285,8.1l6.285,8.1l-8.08-6.3L141.506,35.345"/>
			<path id="Fill-11" sketch:type="MSShapeGroup" fill="#9B8867" d="M15.16,19.145v35.345l1.521-17.673L15.16,19.145"/>
			<path id="Fill-12" sketch:type="MSShapeGroup" fill="#9B8867" d="M4.877,27.982l8.815,8.836h4.407l8.815-8.836L16.63,35.345
				H15.16L4.877,27.982"/>
			<path id="Fill-13" sketch:type="MSShapeGroup" fill="#9B8867" d="M4.877,45.655l8.815-8.836h4.407l8.815,8.836L16.63,38.291
				H15.16L4.877,45.655"/>
			<path id="Fill-14" sketch:type="MSShapeGroup" fill="#9B8867" d="M222.309,35.345v35.345l1.521-17.673L222.309,35.345"/>
			<path id="Fill-15" sketch:type="MSShapeGroup" fill="#9B8867" d="M212.025,44.182l8.815,8.836h4.407l8.815-8.836l-10.284,7.364
				h-1.469L212.025,44.182"/>
			<path id="Fill-16" sketch:type="MSShapeGroup" fill="#9B8867" d="M212.025,61.855l8.815-8.836h4.407l8.815,8.836l-10.284-7.364
				h-1.469L212.025,61.855"/>
			<path id="Fill-17" sketch:type="MSShapeGroup" fill="#9B8867" d="M18.099,60.382H3.407l13.222,1.473L18.099,60.382"/>
			<path id="Fill-18" sketch:type="MSShapeGroup" fill="#9B8867" d="M32.79,150.218H18.099l13.222-1.473L32.79,150.218"/>
			<path id="Fill-19" sketch:type="MSShapeGroup" fill="#9B8867" d="M9.284,131.073l-8.815,1.473h10.284L9.284,131.073"/>
			<path id="Fill-20" sketch:type="MSShapeGroup" fill="#9B8867" d="M15.16,67.745l-8.815-1.473H16.63L15.16,67.745"/>
			<path id="Fill-21" sketch:type="MSShapeGroup" fill="#9B8867" d="M9.284,113.4H3.407l7.346-1.473L9.284,113.4"/>
			<path id="Fill-22" sketch:type="MSShapeGroup" fill="#9B8867" d="M29.852,160.527h91.086L118,162L29.852,160.527"/>
			<path id="Fill-23" sketch:type="MSShapeGroup" fill="#9B8867" d="M76.864,144.327h32.321l-8.815,1.473L76.864,144.327"/>
			<path id="Fill-24" sketch:type="MSShapeGroup" fill="#9B8867" d="M142.975,160.527h41.136L166.861,162L142.975,160.527"/>
			<path id="Fill-25" sketch:type="MSShapeGroup" fill="#9B8867" d="M129.753,145.8h23.506l-20.568-1.473L129.753,145.8"/>
			<path id="Fill-26" sketch:type="MSShapeGroup" fill="#212121" d="M225.682,131.476l-34.225,2.542H38.667l-23.967-2.529
				c-2.243-0.237-3.946-2.134-3.946-4.395v-8.384c0-1.477,0.736-2.857,1.963-3.676l2.445-1.635V88.364l4.863-23.157
				c0.626-2.979,3.001-5.262,5.998-5.751c7.944-1.296,25.381-3.492,52.312-3.492c17.819,0,31.733,0.588,41.678,1.237
				c11.666,0.763,22.823,5.018,32.07,12.188l20.492,15.892c2.762,2.031,5.932,3.431,9.291,4.104l33.808,6.532
				c4.246,0.82,7.988,3.314,10.387,6.922l0.516,0.773c1.071,1.613,1.973,3.331,2.691,5.13l1.438,3.605
				c0.278,0.695,0.42,1.439,0.42,2.187v11.068C231.123,128.687,228.749,131.249,225.682,131.476"/>
			<path id="Fill-27" sketch:type="MSShapeGroup" fill="#AF9358" d="M38.667,135.491c-0.053,0-0.103-0.003-0.154-0.007l-23.966-2.53
				c-3-0.317-5.262-2.835-5.262-5.859v-8.384c0-1.975,0.978-3.807,2.617-4.901l1.791-1.197v-24.25c0-0.102,0.01-0.203,0.032-0.303
				l4.863-23.157c0.757-3.602,3.583-6.311,7.199-6.9c8.039-1.311,25.556-3.511,52.548-3.511c15.134,0,29.187,0.417,41.775,1.24
				c11.976,0.783,23.343,5.103,32.872,12.493l20.493,15.892c2.54,1.867,5.552,3.199,8.678,3.825l33.797,6.53
				c4.601,0.89,8.731,3.642,11.333,7.551l0.514,0.775c1.128,1.697,2.08,3.512,2.832,5.399l1.44,3.604
				c0.348,0.872,0.524,1.792,0.524,2.736v11.066c0,3.835-2.988,7.06-6.802,7.344l-34.225,2.54L38.667,135.491L38.667,135.491z
				 M38.743,132.545h152.714l34.116-2.538c2.287-0.169,4.081-2.105,4.081-4.406v-11.066c0-0.567-0.106-1.118-0.314-1.641
				l-1.44-3.607c-0.677-1.697-1.534-3.331-2.549-4.859l-0.514-0.775c-2.167-3.256-5.611-5.551-9.445-6.291l-33.808-6.532
				c-3.552-0.713-6.965-2.221-9.88-4.362L151.18,70.554c-9.062-7.029-19.873-11.138-31.265-11.883
				c-12.523-0.819-26.513-1.234-41.582-1.234c-26.785,0-44.124,2.175-52.075,3.473c-2.409,0.392-4.293,2.199-4.797,4.599
				L16.63,88.515V113.4c0,0.493-0.245,0.953-0.654,1.225l-2.445,1.635c-0.82,0.546-1.309,1.462-1.309,2.451v8.384
				c0,1.512,1.131,2.772,2.631,2.929L38.743,132.545L38.743,132.545z M225.682,131.476h0.015H225.682L225.682,131.476z"/>
			<path id="Fill-28" sketch:type="MSShapeGroup" fill="#212121" d="M63.642,131.073c0-10.574-8.55-19.145-19.099-19.145
				s-19.099,8.571-19.099,19.145s8.55,19.145,19.099,19.145S63.642,141.647,63.642,131.073"/>
			<path id="Fill-29" sketch:type="MSShapeGroup" fill="#AF9358" d="M44.543,151.691c-11.342,0-20.568-9.249-20.568-20.618
				s9.226-20.618,20.568-20.618s20.568,9.249,20.568,20.618S55.885,151.691,44.543,151.691L44.543,151.691z M44.543,113.4
				c-9.721,0-17.63,7.928-17.63,17.673s7.908,17.673,17.63,17.673s17.63-7.928,17.63-17.673S54.264,113.4,44.543,113.4L44.543,113.4
				z"/>
			<path id="Fill-30" sketch:type="MSShapeGroup" fill="#212121" d="M60.704,131.073c0-8.947-7.235-16.2-16.16-16.2
				s-16.16,7.253-16.16,16.2s7.235,16.2,16.16,16.2S60.704,140.02,60.704,131.073"/>
			<path id="Fill-31" sketch:type="MSShapeGroup" fill="#9B8867" d="M60.704,131.073c0,0-0.013,0.53-0.038,1.459
				c-0.068,0.925-0.226,2.255-0.707,3.786c-0.873,3.072-3.376,6.882-7.134,9.134c-1.857,1.141-3.921,1.888-5.984,2.215
				c-1.988,0.32-3.964,0.261-5.587-0.016c-1.623-0.32-2.95-0.753-3.83-1.165c-0.441-0.203-0.789-0.364-1.025-0.473
				c-0.225-0.13-0.345-0.199-0.345-0.199s-0.237-0.147-0.679-0.424c-0.448-0.265-1.047-0.748-1.797-1.362
				c-1.463-1.259-3.347-3.405-4.613-6.487c-1.208-3.078-1.717-7.118-0.498-11.07c1.147-3.953,3.989-7.661,7.795-9.779
				c1.894-1.069,3.975-1.747,6.109-1.998c2.076-0.247,4.224-0.088,6.16,0.424c3.927,1.007,7.045,3.451,8.924,6.023
				c1.945,2.57,2.706,5.211,3.012,7.028c0.065,0.46,0.122,0.87,0.172,1.228c0.015,0.361,0.026,0.667,0.037,0.915
				C60.693,130.808,60.704,131.073,60.704,131.073s-0.016-0.265-0.047-0.76c-0.016-0.249-0.037-0.554-0.06-0.913
				c-0.059-0.355-0.125-0.763-0.201-1.219c-0.347-1.801-1.171-4.401-3.147-6.881c-1.911-2.486-5.023-4.792-8.846-5.67
				c-3.793-0.918-8.195-0.365-11.724,1.785c-3.566,2.102-6.141,5.664-7.118,9.368c-0.505,1.856-0.655,3.708-0.477,5.481
				c0.167,1.742,0.582,3.325,1.18,4.738c1.233,2.792,2.991,4.701,4.347,5.808c0.695,0.538,1.243,0.963,1.656,1.191
				c0.404,0.24,0.62,0.367,0.62,0.367s0.106,0.069,0.304,0.197c0.209,0.108,0.514,0.268,0.905,0.47
				c0.777,0.415,1.96,0.864,3.432,1.233c1.491,0.325,3.251,0.476,5.193,0.264c1.864-0.202,3.889-0.809,5.687-1.801
				c3.67-1.956,6.3-5.517,7.305-8.496c0.547-1.482,0.77-2.792,0.883-3.71C60.664,131.601,60.704,131.073,60.704,131.073"/>
			<path id="Fill-32" sketch:type="MSShapeGroup" fill="#212121" d="M54.827,131.073c0-5.694-4.604-10.309-10.284-10.309
				s-10.284,4.616-10.284,10.309c0,5.694,4.604,10.309,10.284,10.309S54.827,136.766,54.827,131.073"/>
			<path id="Fill-33" sketch:type="MSShapeGroup" fill="#AF9358" d="M44.543,142.855c-6.48,0-11.753-5.286-11.753-11.782
				c0-6.496,5.273-11.782,11.753-11.782s11.753,5.286,11.753,11.782C56.296,137.569,51.024,142.855,44.543,142.855L44.543,142.855z
				 M44.543,122.236c-4.861,0-8.815,3.963-8.815,8.836c0,4.873,3.953,8.836,8.815,8.836s8.815-3.963,8.815-8.836
				C53.358,126.199,49.405,122.236,44.543,122.236L44.543,122.236z"/>
			<path id="Fill-34" sketch:type="MSShapeGroup" fill="#212121" d="M50.42,131.073c0-3.253-2.631-5.891-5.877-5.891
				c-3.245,0-5.877,2.638-5.877,5.891c0,3.253,2.631,5.891,5.877,5.891C47.789,136.964,50.42,134.326,50.42,131.073"/>
			<path id="Fill-35" sketch:type="MSShapeGroup" fill="#9B8867" d="M50.42,131.073c0,0,0.003,0.193,0.009,0.533
				c-0.01,0.339-0.048,0.828-0.201,1.401c-0.275,1.147-1.144,2.611-2.54,3.526c-0.693,0.461-1.457,0.778-2.27,0.937
				c-0.738,0.15-1.525,0.158-2.157,0.072c-1.285-0.196-2.07-0.648-2.07-0.648s-0.389-0.215-0.962-0.722
				c-0.569-0.505-1.291-1.362-1.763-2.574c-0.451-1.219-0.616-2.788-0.116-4.297c0.47-1.517,1.59-2.912,3.05-3.686
				c1.462-0.797,3.198-0.926,4.634-0.505c1.462,0.406,2.597,1.339,3.27,2.302C50.69,129.4,50.357,131.121,50.42,131.073
				c-0.054,0.053,0.138-1.697-1.322-3.504c-0.705-0.876-1.835-1.67-3.191-1.948c-1.353-0.293-2.891-0.059-4.09,0.716
				c-1.221,0.758-2.071,2.009-2.373,3.277c-0.157,0.639-0.192,1.253-0.116,1.872c0.073,0.588,0.222,1.096,0.436,1.571
				c0.436,0.923,1.037,1.542,1.496,1.897c0.464,0.355,0.764,0.495,0.764,0.495s0.532,0.414,1.51,0.71
				c0.5,0.134,1.071,0.218,1.763,0.175c0.614-0.034,1.337-0.211,1.973-0.524c1.306-0.616,2.304-1.832,2.711-2.887
				c0.22-0.523,0.322-0.993,0.376-1.324C50.396,131.264,50.42,131.073,50.42,131.073"/>
			<path id="Fill-36" sketch:type="MSShapeGroup" fill="#212121" d="M207.617,131.073c0-10.574-8.55-19.145-19.099-19.145
				c-10.548,0-19.099,8.571-19.099,19.145s8.55,19.145,19.099,19.145C199.067,150.218,207.617,141.647,207.617,131.073"/>
			<path id="Fill-37" sketch:type="MSShapeGroup" fill="#AF9358" d="M188.519,151.691c-11.342,0-20.568-9.249-20.568-20.618
				s9.226-20.618,20.568-20.618c11.342,0,20.568,9.249,20.568,20.618S199.86,151.691,188.519,151.691L188.519,151.691z
				 M188.519,113.4c-9.721,0-17.63,7.928-17.63,17.673s7.908,17.673,17.63,17.673c9.721,0,17.63-7.928,17.63-17.673
				S198.24,113.4,188.519,113.4L188.519,113.4z"/>
			<path id="Fill-38" sketch:type="MSShapeGroup" fill="#212121" d="M204.679,131.073c0-8.947-7.236-16.2-16.16-16.2
				c-8.925,0-16.16,7.253-16.16,16.2s7.235,16.2,16.16,16.2C197.444,147.273,204.679,140.02,204.679,131.073"/>
			<path id="Fill-39" sketch:type="MSShapeGroup" fill="#9B8867" d="M204.679,131.073c0,0-0.013,0.53-0.038,1.459
				c-0.068,0.925-0.226,2.255-0.707,3.786c-0.871,3.072-3.376,6.882-7.134,9.134c-1.857,1.141-3.921,1.888-5.984,2.215
				c-1.988,0.32-3.964,0.261-5.587-0.016c-1.623-0.32-2.95-0.753-3.83-1.165c-0.441-0.203-0.789-0.364-1.025-0.473
				c-0.225-0.13-0.345-0.199-0.345-0.199s-0.237-0.147-0.679-0.424c-0.448-0.265-1.047-0.748-1.797-1.362
				c-1.463-1.259-3.347-3.405-4.613-6.487c-1.208-3.078-1.717-7.118-0.498-11.07c1.147-3.953,3.989-7.661,7.795-9.779
				c1.894-1.069,3.975-1.747,6.109-1.998c2.076-0.247,4.224-0.088,6.16,0.424c3.927,1.007,7.045,3.451,8.924,6.023
				c1.945,2.57,2.706,5.211,3.012,7.028c0.065,0.46,0.122,0.87,0.172,1.228c0.015,0.361,0.026,0.667,0.037,0.915
				C204.669,130.808,204.679,131.073,204.679,131.073s-0.016-0.265-0.048-0.76c-0.015-0.249-0.035-0.554-0.059-0.913
				c-0.059-0.355-0.125-0.763-0.201-1.219c-0.347-1.801-1.171-4.401-3.147-6.881c-1.911-2.486-5.023-4.792-8.846-5.67
				c-3.793-0.918-8.195-0.365-11.724,1.785c-3.566,2.102-6.141,5.664-7.118,9.368c-0.505,1.856-0.654,3.708-0.477,5.481
				c0.167,1.742,0.582,3.325,1.18,4.738c1.233,2.792,2.991,4.701,4.347,5.808c0.695,0.538,1.243,0.963,1.656,1.191
				c0.404,0.24,0.62,0.367,0.62,0.367s0.106,0.069,0.304,0.197c0.209,0.108,0.514,0.268,0.905,0.47
				c0.777,0.415,1.96,0.864,3.432,1.233c1.491,0.325,3.251,0.476,5.195,0.264c1.863-0.202,3.887-0.809,5.686-1.801
				c3.67-1.956,6.3-5.517,7.306-8.496c0.545-1.482,0.768-2.792,0.881-3.71C204.639,131.601,204.679,131.073,204.679,131.073"/>
			<path id="Fill-40" sketch:type="MSShapeGroup" fill="#212121" d="M198.802,131.073c0-5.694-4.604-10.309-10.284-10.309
				c-5.68,0-10.284,4.616-10.284,10.309c0,5.694,4.604,10.309,10.284,10.309C194.198,141.382,198.802,136.766,198.802,131.073"/>
			<path id="Fill-41" sketch:type="MSShapeGroup" fill="#AF9358" d="M188.519,142.855c-6.48,0-11.753-5.286-11.753-11.782
				c0-6.496,5.273-11.782,11.753-11.782c6.48,0,11.753,5.286,11.753,11.782C200.272,137.569,194.999,142.855,188.519,142.855
				L188.519,142.855z M188.519,122.236c-4.861,0-8.815,3.963-8.815,8.836c0,4.873,3.953,8.836,8.815,8.836
				c4.861,0,8.815-3.963,8.815-8.836C197.333,126.199,193.38,122.236,188.519,122.236L188.519,122.236z"/>
			<path id="Fill-42" sketch:type="MSShapeGroup" fill="#212121" d="M194.395,131.073c0-3.253-2.631-5.891-5.877-5.891
				c-3.245,0-5.877,2.638-5.877,5.891c0,3.253,2.631,5.891,5.877,5.891C191.764,136.964,194.395,134.326,194.395,131.073"/>
			<path id="Fill-43" sketch:type="MSShapeGroup" fill="#9B8867" d="M194.395,131.073c0,0,0.003,0.193,0.009,0.533
				c-0.01,0.339-0.047,0.828-0.201,1.401c-0.275,1.147-1.144,2.611-2.54,3.526c-0.693,0.461-1.457,0.778-2.27,0.937
				c-0.738,0.15-1.525,0.158-2.157,0.072c-1.285-0.196-2.07-0.648-2.07-0.648s-0.389-0.215-0.964-0.722
				c-0.567-0.505-1.29-1.362-1.761-2.574c-0.451-1.219-0.616-2.788-0.116-4.297c0.47-1.517,1.59-2.912,3.05-3.686
				c1.462-0.797,3.198-0.926,4.634-0.505c1.462,0.406,2.597,1.339,3.27,2.302C194.665,129.4,194.332,131.121,194.395,131.073
				c-0.054,0.053,0.138-1.697-1.322-3.504c-0.705-0.876-1.835-1.67-3.191-1.948c-1.353-0.293-2.891-0.059-4.09,0.716
				c-1.219,0.758-2.071,2.009-2.373,3.277c-0.157,0.639-0.192,1.253-0.116,1.872c0.073,0.588,0.223,1.096,0.436,1.571
				c0.436,0.923,1.037,1.542,1.496,1.897c0.464,0.355,0.764,0.495,0.764,0.495s0.532,0.414,1.51,0.71
				c0.5,0.134,1.071,0.218,1.763,0.175c0.614-0.034,1.337-0.211,1.973-0.524c1.306-0.616,2.304-1.832,2.711-2.887
				c0.22-0.523,0.322-0.993,0.376-1.324C194.372,131.264,194.395,131.073,194.395,131.073"/>
			<path id="Fill-44" sketch:type="MSShapeGroup" fill="#212121" d="M111.169,66.894c-0.288-1.86,1.218-3.515,3.091-3.387
				c5.938,0.405,17.897,1.695,25.777,5.711c7.069,3.604,19.926,13.165,28.006,19.374c2.286,1.755,0.961,5.417-1.917,5.28
				c-9.961-0.476-26.368-1.433-40.677-3.081c-5.248-0.604-9.617-4.274-11.148-9.344C113.269,78.028,112.16,73.318,111.169,66.894"/>
			<path id="Fill-45" sketch:type="MSShapeGroup" fill="#9B8867" d="M166.28,95.347c-0.073,0-0.148-0.001-0.225-0.004
				c-10.873-0.52-26.774-1.477-40.774-3.088c-5.824-0.672-10.685-4.747-12.386-10.381c-1.224-4.056-2.293-9.019-3.179-14.754
				c-0.206-1.334,0.2-2.67,1.111-3.664c0.908-0.993,2.199-1.515,3.533-1.418c6.394,0.436,18.319,1.778,26.343,5.867
				c6.953,3.545,19.194,12.571,28.235,19.518c1.563,1.203,2.138,3.178,1.46,5.031C169.75,94.231,168.149,95.347,166.28,95.347
				L166.28,95.347z M112.62,66.669c0.864,5.599,1.903,10.427,3.087,14.352c1.362,4.509,5.252,7.77,9.911,8.306
				c13.919,1.604,29.75,2.557,40.579,3.074c0.97,0.049,1.356-0.722,1.443-0.959c0.088-0.239,0.31-1.066-0.489-1.682
				c-7.322-5.626-20.668-15.605-27.778-19.228c-7.56-3.854-19.04-5.135-25.21-5.557c-0.448-0.035-0.87,0.141-1.171,0.471
				C112.686,65.779,112.551,66.224,112.62,66.669L112.62,66.669z"/>
			<path id="Fill-46" sketch:type="MSShapeGroup" fill="#AF9358" d="M226.574,103.612l1.888,3.051
				c0.04,0.062,0.021,0.143-0.043,0.181c-0.018,0.012-0.037,0.018-0.056,0.019l-0.019,0.001l-14.812,1.368
				c-0.176,0.016-0.342-0.04-0.469-0.141l-0.046-0.037l-2.167-1.755l-9.492-8.661l-0.018-0.016c-0.22-0.202-0.245-0.539-0.065-0.772
				l2.665-3.421l0.013-0.018c0.116-0.149,0.304-0.209,0.477-0.172c4.124,0.9,8.233,1.716,12.369,2.686
				C220.936,97.078,224.476,99.948,226.574,103.612c-2.243-3.582-5.849-6.247-9.899-7.206c-4.102-0.791-8.289-1.455-12.43-2.19
				l0.491-0.19l-2.53,3.523l-0.082-0.788l9.824,8.283l2.023,1.919l-0.514-0.178l14.874-0.199l-0.119,0.203L226.574,103.612"/>
			<path id="Fill-53" sketch:type="MSShapeGroup" fill="#9B8867" d="M13.691,113.4l17.63,2.945h-17.63V113.4"/>
			<path id="Fill-54" sketch:type="MSShapeGroup" fill="#AF9358" d="M231.123,113.4l-29.383,4.418l29.383-1.473V113.4"/>
			<path id="Fill-55" sketch:type="MSShapeGroup" fill="#9B8867" d="M63.642,129.6H118l38.198,1.473H75.395L63.642,129.6"/>
			<path id="Fill-56" sketch:type="MSShapeGroup" fill="#9B8867" d="M73.926,120.764h54.358l38.198,1.473H85.679L73.926,120.764"/>
			<path id="Fill-57" sketch:type="MSShapeGroup" fill="#9B8867" d="M103.309,61.855c0,0,4.407,18.409,4.407,38.291V129.6
				c0,0-1.469-21.845-1.469-35.345S103.309,61.855,103.309,61.855"/>
			<path id="Fill-58" sketch:type="MSShapeGroup" fill="#9B8867" d="M134.16,70.691l-3.818,5.009l-9.404,8.246l8.226-9.427
				L134.16,70.691"/>
			<path id="Fill-59" sketch:type="MSShapeGroup" fill="#9B8867" d="M140.037,73.636l-3.818,5.009l-9.404,8.246l8.226-9.427
				L140.037,73.636"/>
			<path id="Fill-60" sketch:type="MSShapeGroup" fill="#9B8867" d="M142.975,100.145l5.713-7.364l-5.713-7.364l7.346,5.727
				l7.346-5.727l-5.713,7.364l5.713,7.364l-7.346-5.727L142.975,100.145"/>
		</g>
	</g>
</g>
<path fill="#9D906A" d="M63.044,97.731h0.405c0.625,0,1.216,0.163,1.216,0.912c0,0.242-0.132,0.524-0.357,0.63v0.009
	c0.392,0.07,0.665,0.454,0.665,0.841c0,0.665-0.568,0.929-1.154,0.929h-0.775V97.731z M63.458,99.202h0.106
	c0.392,0,0.714-0.079,0.714-0.555c0-0.467-0.317-0.546-0.705-0.546h-0.114V99.202z M63.458,100.682h0.317
	c0.383,0,0.784-0.115,0.784-0.586c0-0.467-0.476-0.564-0.846-0.564h-0.255V100.682z M68.901,99.392c0,0.987-0.78,1.731-1.74,1.731
	c-0.96,0-1.74-0.744-1.74-1.731c0-0.951,0.788-1.731,1.74-1.731C68.113,97.661,68.901,98.44,68.901,99.392z M68.487,99.392
	c0-0.731-0.546-1.343-1.326-1.343s-1.326,0.612-1.326,1.343c0,0.758,0.608,1.343,1.326,1.343
	C67.88,100.735,68.487,100.149,68.487,99.392z M69.332,97.731h0.471l0.678,1.211l0.722-1.211h0.471l-0.956,1.581l1.008,1.74h-0.462
	l-0.784-1.361l-0.815,1.361h-0.462l1.044-1.74L69.332,97.731z M77.405,73.991v0.361h-0.379v0.485H76.63v-0.485h-1.638l2.035-2.977
	v2.616H77.405z M76.63,72.621h-0.009l-0.934,1.37h0.943V72.621z M77.916,71.895l0.229-0.379h0.744v3.321h-0.396v-2.942H77.916z
	 M81.069,71.895l-0.207,0.683l0.233-0.013c0.643,0,1.066,0.55,1.066,1.163c0,0.7-0.546,1.18-1.229,1.18
	c-0.409,0-0.819-0.216-1.013-0.581l0.308-0.291c0.101,0.282,0.44,0.493,0.735,0.493c0.449,0,0.802-0.37,0.802-0.815
	c0-0.427-0.366-0.788-0.793-0.788c-0.233,0-0.476,0.11-0.621,0.295h-0.079l0.511-1.705h1.33v0.379H81.069z M59.124,88.374
	l-1.91,4.49h-1.93l7.302-16.576l7.113,16.576h-1.951l-1.867-4.49H59.124z M62.544,80.401l-2.707,6.337h5.351L62.544,80.401z
	 M72.552,88.5c0,1.658,0.189,3.084,2.224,3.084c2.035,0,2.224-1.427,2.224-3.084v-5.497h1.679v5.686
	c0,2.623-0.986,4.448-3.903,4.448s-3.903-1.825-3.903-4.448v-5.686h1.679V88.5z M87.017,66.581v39.386H47.631V66.581H87.017
	 M88.58,65.018H46.069v42.512H88.58V65.018L88.58,65.018z"/>
</svg>
