<?xml version="1.0" encoding="UTF-8" standalone="no"?>
<svg width="226px" height="150px" viewBox="0 0 226 150" version="1.1" xmlns="http://www.w3.org/2000/svg" xmlns:xlink="http://www.w3.org/1999/xlink" xmlns:sketch="http://www.bohemiancoding.com/sketch/ns">
    <!-- Generator: Sketch 3.4.2 (15855) - http://www.bohemiancoding.com/sketch -->
    <title>Icon</title>
    <desc>Created with Sketch.</desc>
    <defs></defs>
    <g id="Page-1" stroke="none" stroke-width="1" fill="none" fill-rule="evenodd" sketch:type="MSPage">
        <g id="Shop-/-Sign-UP-3" sketch:type="MSArtboardGroup" transform="translate(-633.000000, -146.000000)">
            <g id="Icon" sketch:type="MSLayerGroup" transform="translate(633.000000, 146.000000)">
                <path d="M106.345327,139.529439 L6.64579439,130.807009 C3.56168224,130.536449 1.27943925,127.816822 1.54859813,124.731308 L7.25280374,59.5261682 C7.52336449,56.4406542 10.2429907,54.1584112 13.3285047,54.428972 L113.028037,63.1514019 C116.11215,63.4205607 118.394393,66.1401869 118.125234,69.2257009 L112.419626,134.432243 C112.150467,137.516355 109.430841,139.798598 106.345327,139.529439" id="Fill-1" fill="#121212" sketch:type="MSShapeGroup"></path>
                <path d="M106.845794,140.952336 C106.63972,140.952336 106.432243,140.943925 106.223364,140.925701 L6.52383178,132.203271 C4.65934579,132.040654 2.96869159,131.16028 1.76588785,129.726168 C0.561682243,128.292056 -0.0102803738,126.473832 0.152336449,124.609346 L5.85654206,59.4042056 C6.02056075,57.5383178 6.89953271,55.8476636 8.33364486,54.6448598 C9.76915888,53.4420561 11.5873832,52.8700935 13.4504673,53.0327103 L113.15,61.7551402 C116.999533,62.0915888 119.857944,65.4981308 119.521495,69.3476636 L113.815888,134.552804 C113.653271,136.418692 112.774299,138.109346 111.340187,139.31215 C110.065888,140.381776 108.490187,140.952336 106.845794,140.952336 L106.845794,140.952336 Z M106.468692,138.133178 C107.584579,138.228505 108.676636,137.886449 109.537383,137.164486 C110.398131,136.442523 110.925234,135.42757 111.023364,134.31028 L116.72757,69.1037383 C116.929439,66.7934579 115.214953,64.7495327 112.906075,64.5476636 L13.2065421,55.8252336 C12.0934579,55.7299065 10.9971963,56.0705607 10.1364486,56.7925234 C9.27570093,57.514486 8.74719626,58.5294393 8.64906542,59.6481308 L2.94485981,124.853271 C2.84672897,125.971963 3.19158879,127.062617 3.9135514,127.923364 C4.63551402,128.784112 5.64906542,129.312617 6.76775701,129.410748 L106.468692,138.133178 L106.468692,138.133178 Z" id="Fill-2" fill="#AF9358" sketch:type="MSShapeGroup"></path>
                <path d="M104.642056,134.415421 L9.21121495,126.065888 C7.66915888,125.931308 6.52803738,124.571495 6.66261682,123.028037 L11.9939252,62.0915888 C12.1299065,60.5481308 13.4897196,59.4084112 15.0317757,59.5429907 L110.461215,67.8925234 C112.004673,68.0271028 113.145794,69.3869159 113.011215,70.928972 L107.679907,131.865421 C107.543925,133.408879 106.184112,134.55 104.642056,134.415421" id="Fill-3" fill="#212121" sketch:type="MSShapeGroup"></path>
                <path d="M104.642056,134.415421 C104.642056,134.415421 104.75,134.416822 104.958879,134.421028 C105.166355,134.411215 105.480374,134.381776 105.857477,134.238785 C106.599065,134.000467 107.677103,133.076636 107.675701,131.519159 C107.916822,128.506542 108.263084,124.202804 108.676636,119.03972 C109.50514,108.71215 110.611215,94.9415888 111.715888,81.171028 C111.992056,77.7280374 112.268224,74.2864486 112.540187,70.896729 C112.597664,70.1873832 112.318692,69.4738318 111.802804,69.0014019 C111.546262,68.7658879 111.240654,68.5906542 110.911215,68.4883178 C110.661682,68.3915888 110.183645,68.378972 109.779907,68.3425234 C108.118692,68.2093458 106.478505,68.0775701 104.864953,67.9471963 C98.4093458,67.4299065 92.385514,66.9462617 87.221028,66.5313084 C76.8934579,65.7028037 70.0088785,65.1504673 70.0088785,65.1504673 C70.0088785,65.1504673 56.2509346,63.8971963 35.6154206,62.0172897 C30.4565421,61.5462617 24.8672897,61.0373832 18.9570093,60.4990654 C18.2182243,60.4317757 17.4738318,60.364486 16.7252336,60.2957944 L15.5981308,60.1934579 C15.2056075,60.161215 14.8425234,60.1065421 14.5719626,60.138785 C13.9747664,60.1878505 13.3985981,60.503271 13.0285047,60.9897196 C12.6261682,61.4845794 12.5658879,62.0228972 12.5056075,62.8766355 C12.2224299,65.978972 11.9336449,69.15 11.6406542,72.3742991 C10.464486,85.2714953 9.21121495,99.0294393 7.95794393,112.785981 C7.6453271,116.224766 7.33271028,119.66215 7.02149533,123.086916 C6.95981308,123.835514 7.25981308,124.60514 7.82757009,125.102804 C8.39953271,125.650935 9.12009346,125.739252 10.0158879,125.792523 C11.7205607,125.948131 13.4196262,126.103738 15.1116822,126.257944 C21.8827103,126.874766 28.5471963,127.481776 34.9957944,128.069159 C47.8929907,129.243925 59.9308411,130.341589 70.2485981,131.280841 C90.8841121,133.160748 104.642056,134.415421 104.642056,134.415421 C104.642056,134.415421 90.8757009,133.26028 70.2275701,131.528972 C59.9028037,130.662617 47.8579439,129.651869 34.9523364,128.569626 C28.4995327,128.028505 21.8308411,127.469159 15.0556075,126.901402 C13.3621495,126.759813 11.6616822,126.616822 9.95560748,126.473832 C9.52803738,126.42757 9.11728972,126.434579 8.62523364,126.308411 C8.15140187,126.186449 7.72242991,125.946729 7.36074766,125.627103 C6.62757009,124.993458 6.22943925,124.000935 6.30233645,123.032243 C6.58971963,119.603271 6.87850467,116.16028 7.16588785,112.71729 C8.32102804,98.9509346 9.47476636,85.1859813 10.5570093,72.2803738 C10.8275701,69.053271 11.0939252,65.8808411 11.3546729,62.7757009 C11.3939252,62.3943925 11.3953271,62.0046729 11.4990654,61.5462617 C11.6140187,61.0626168 11.814486,60.6518692 12.0990654,60.2761682 C12.6584112,59.5303738 13.5345794,59.0411215 14.4570093,58.9556075 C14.6827103,58.9317757 14.9280374,58.938785 15.135514,58.9528037 L15.7018692,59.0004673 L16.8303738,59.0957944 C17.578972,59.1588785 18.3233645,59.2205607 19.0621495,59.282243 C24.9780374,59.7785047 30.5700935,60.2481308 35.7331776,60.6813084 C56.3813084,62.4126168 70.1476636,63.5663551 70.1476636,63.5663551 C70.1476636,63.5663551 77.0238318,64.2182243 87.338785,65.1953271 C92.4962617,65.6845794 98.5130841,66.2537383 104.96028,66.8649533 C106.571028,67.017757 108.209813,67.1733645 109.868224,67.3303738 C110.290187,67.382243 110.661682,67.3640187 111.211215,67.5364486 C111.680841,67.6892523 112.116822,67.9485981 112.474299,68.2892523 C113.197664,68.9663551 113.57757,69.9939252 113.479439,70.9794393 C113.158411,74.3635514 112.833178,77.8023364 112.507944,81.2397196 C111.204206,94.9934579 109.901869,108.745794 108.924766,119.060748 C108.435514,124.218224 108.028972,128.516355 107.742991,131.524766 C107.721963,133.104673 106.61028,134.029907 105.864486,134.255607 C105.481776,134.394393 105.166355,134.418224 104.958879,134.425234 C104.75,134.418224 104.642056,134.415421 104.642056,134.415421" id="Fill-4" fill="#9B8867" sketch:type="MSShapeGroup"></path>
                <path d="M31.3341121,110.622897 L31.9803738,103.230841 L24.5897196,102.584579 L23.9420561,109.975234 L14.9953271,112.916355 L14.4570093,119.076168 L39.0948598,121.232243 L39.6331776,115.07243 L31.3341121,110.622897" id="Fill-5" fill="#212121" sketch:type="MSShapeGroup"></path>
                <path d="M39.0948598,122.634112 C39.0542056,122.634112 39.0135514,122.63271 38.9728972,122.628505 L14.3350467,120.473832 C13.5640187,120.406542 12.9920561,119.725234 13.0607477,118.955607 L13.5990654,112.794393 C13.6481308,112.235047 14.0252336,111.759813 14.5579439,111.584579 L22.6257009,108.932243 L23.1920561,102.461215 C23.2593458,101.691589 23.9266355,101.105607 24.7116822,101.188318 L32.1023364,101.834579 C32.8733645,101.901869 33.4439252,102.581776 33.3766355,103.352804 L32.8116822,109.823832 L40.2962617,113.837383 C40.7911215,114.102336 41.0799065,114.635047 41.0294393,115.194393 L40.4911215,121.354206 C40.4588785,121.725701 40.2808411,122.067757 39.9962617,122.306075 C39.7425234,122.519159 39.4228972,122.634112 39.0948598,122.634112 L39.0948598,122.634112 Z M15.9752336,117.801869 L37.8205607,119.714019 L38.1570093,115.871495 L30.671028,111.857944 C30.1775701,111.592991 29.888785,111.058879 29.9378505,110.500935 L30.4607477,104.50514 L25.8640187,104.102804 L25.3383178,110.098598 C25.2892523,110.656542 24.9121495,111.131776 24.3794393,111.307009 L16.3116822,113.960748 L15.9752336,117.801869 L15.9752336,117.801869 Z" id="Fill-6" fill="#9B8867" sketch:type="MSShapeGroup"></path>
                <path d="M29.9014019,84.428972 L29.9014019,84.428972 C25.1392523,84.0126168 20.9406542,87.535514 20.5228972,92.2976636 L19.9845794,98.4574766 C19.5682243,103.219626 23.0911215,107.418224 27.853271,107.835981 C32.6154206,108.252336 36.8140187,104.729439 37.2317757,99.9658879 L37.7700935,93.8074766 C38.1864486,89.0439252 34.6635514,84.8453271 29.9014019,84.428972" id="Fill-7" fill="#212121" sketch:type="MSShapeGroup"></path>
                <path d="M28.6257009,109.270093 C28.3285047,109.270093 28.0299065,109.257477 27.7313084,109.232243 C22.2065421,108.748598 18.1046729,103.86028 18.5883178,98.335514 L19.1266355,92.1757009 C19.3607477,89.4995327 20.6238318,87.0742991 22.6817757,85.3471963 C24.7397196,83.6200935 27.3443925,82.8 30.0233645,83.0327103 C35.5481308,83.5163551 39.65,88.4046729 39.1663551,93.9280374 L38.6280374,100.089252 C38.3939252,102.764019 37.1308411,105.189252 35.0728972,106.916355 C33.2448598,108.45 30.9836449,109.270093 28.6257009,109.270093 L28.6257009,109.270093 Z M29.1345794,85.7971963 C27.4327103,85.7971963 25.8023364,86.388785 24.4845794,87.4948598 C23,88.7411215 22.088785,90.4892523 21.9205607,92.421028 L21.3808411,98.5794393 C21.0331776,102.564953 23.9911215,106.089252 27.9752336,106.438318 C29.9028037,106.60514 31.7869159,106.014953 33.2714953,104.768692 C34.7546729,103.523832 35.6658879,101.774299 35.8341121,99.8439252 L36.3738318,93.6841121 C36.7214953,89.7 33.7635514,86.1742991 29.7794393,85.8252336 C29.5635514,85.8070093 29.3476636,85.7971963 29.1345794,85.7971963 L29.1345794,85.7971963 Z" id="Fill-8" fill="#9B8867" sketch:type="MSShapeGroup"></path>
                <path d="M96.488785,77.4616822 C96.4271028,77.4616822 96.3654206,77.4588785 96.3023364,77.453271 L27.3149533,71.4168224 C26.1584112,71.3158879 25.303271,70.296729 25.4042056,69.138785 C25.5051402,67.982243 26.5369159,67.1369159 27.682243,67.2280374 L96.6696262,73.264486 C97.8261682,73.3654206 98.6813084,74.3859813 98.5803738,75.5425234 C98.4850467,76.6373832 97.5668224,77.4616822 96.488785,77.4616822" id="Fill-9" fill="#9B8867" sketch:type="MSShapeGroup"></path>
                <path d="M103.385981,97.2252336 C103.345327,97.2252336 103.303271,97.2238318 103.262617,97.2196262 L51.5224299,92.6929907 C50.7514019,92.6257009 50.1808411,91.9457944 50.2481308,91.1747664 C50.3154206,90.4037383 50.996729,89.8247664 51.7663551,89.9004673 L103.506542,94.4271028 C104.27757,94.4943925 104.848131,95.1742991 104.780841,95.9453271 C104.717757,96.6757009 104.10514,97.2252336 103.385981,97.2252336" id="Fill-10" fill="#9B8867" sketch:type="MSShapeGroup"></path>
                <path d="M84.2602804,102.999533 C84.221028,102.999533 84.178972,102.998131 84.1369159,102.993925 L50.8761682,100.085047 C50.1051402,100.017757 49.5331776,99.3364486 49.6018692,98.5668224 C49.6691589,97.7943925 50.3518692,97.2168224 51.1200935,97.2911215 L84.3808411,100.201402 C85.153271,100.268692 85.7238318,100.948598 85.6565421,101.719626 C85.5920561,102.45 84.9808411,102.999533 84.2602804,102.999533" id="Fill-11" fill="#9B8867" sketch:type="MSShapeGroup"></path>
                <path d="M76.3313084,108.513084 C76.2906542,108.513084 76.2485981,108.511682 76.2079439,108.507477 L50.3378505,106.24486 C49.5654206,106.17757 48.9948598,105.496262 49.0621495,104.726636 C49.1294393,103.954206 49.8121495,103.37243 50.5803738,103.450935 L76.4518692,105.714953 C77.2228972,105.782243 77.7934579,106.46215 77.7261682,107.233178 C77.6616822,107.963551 77.0504673,108.513084 76.3313084,108.513084" id="Fill-12" fill="#9B8867" sketch:type="MSShapeGroup"></path>
                <path d="M83.182243,115.319159 C83.1415888,115.319159 83.1009346,115.317757 83.0588785,115.313551 L49.7981308,112.403271 C49.0271028,112.335981 48.4565421,111.656075 48.5238318,110.885047 C48.5911215,110.114019 49.271028,109.528037 50.0420561,109.610748 L83.3028037,112.521028 C84.0752336,112.588318 84.6457944,113.268224 84.5771028,114.039252 C84.5140187,114.769626 83.9028037,115.319159 83.182243,115.319159" id="Fill-13" fill="#9B8867" sketch:type="MSShapeGroup"></path>
                <path d="M61.7014019,119.646729 C61.6607477,119.646729 61.6200935,119.645327 61.5780374,119.641121 L49.2598131,118.563084 C48.4873832,118.495794 47.9168224,117.815888 47.9841121,117.04486 C48.0514019,116.273832 48.7299065,115.696262 49.5023364,115.770561 L61.8219626,116.848598 C62.5929907,116.914486 63.1649533,117.595794 63.0962617,118.366822 C63.0331776,119.095794 62.4205607,119.646729 61.7014019,119.646729" id="Fill-14" fill="#9B8867" sketch:type="MSShapeGroup"></path>
                <path d="M75.253271,120.831308 C75.2126168,120.831308 75.1705607,120.829907 75.1299065,120.827103 L66.5056075,120.071495 C65.7345794,120.005607 65.1640187,119.324299 65.2313084,118.553271 C65.3,117.782243 65.9728972,117.203271 66.7495327,117.278972 L75.3724299,118.033178 C76.1448598,118.100467 76.7154206,118.781776 76.6481308,119.551402 C76.5836449,120.281776 75.9724299,120.831308 75.253271,120.831308" id="Fill-15" fill="#9B8867" sketch:type="MSShapeGroup"></path>
                <path d="M20.0280374,0 L20.0280374,33.6448598 L21.478972,16.8224299 L20.0280374,0" id="Fill-16" fill="#AF9358" sketch:type="MSShapeGroup"></path>
                <path d="M10.2149533,8.41121495 L18.6261682,16.8224299 L22.8317757,16.8224299 L31.2429907,8.41121495 L21.4299065,15.4205607 L20.0280374,15.4205607 L10.2149533,8.41121495" id="Fill-17" fill="#AF9358" sketch:type="MSShapeGroup"></path>
                <path d="M10.2149533,25.2336449 L18.6261682,16.8224299 L22.8317757,16.8224299 L31.2429907,25.2336449 L21.4299065,18.2242991 L20.0280374,18.2242991 L10.2149533,25.2336449" id="Fill-18" fill="#AF9358" sketch:type="MSShapeGroup"></path>
                <path d="M185.448598,25.2336449 L191.445794,17.5233645 L185.448598,9.81308411 L193.158879,15.8102804 L200.869159,9.81308411 L194.871963,17.5233645 L200.869159,25.2336449 L193.158879,19.2364486 L185.448598,25.2336449" id="Fill-19" fill="#AF9358" sketch:type="MSShapeGroup"></path>
                <path d="M67.6915888,123.364486 L73.688785,115.654206 L67.6915888,107.943925 L75.4018692,113.941121 L83.1121495,107.943925 L77.1149533,115.654206 L83.1121495,123.364486 L75.4018692,117.36729 L67.6915888,123.364486" id="Fill-20" fill="#808080" sketch:type="MSShapeGroup"></path>
                <path d="M15.8224299,150 L19.0929907,145.794393 L15.8224299,141.588785 L20.0280374,144.859346 L24.2336449,141.588785 L20.9630841,145.794393 L24.2336449,150 L20.0280374,146.729439 L15.8224299,150" id="Fill-21" fill="#AF9358" sketch:type="MSShapeGroup"></path>
                <path d="M97.6565421,12.0911215 L102.153738,6.30841121 L97.6565421,0.525700935 L103.439252,5.0228972 L109.221963,0.525700935 L104.724766,6.30841121 L109.221963,12.0911215 L103.439252,7.59392523 L97.6565421,12.0911215" id="Fill-22" fill="#AF9358" sketch:type="MSShapeGroup"></path>
                <path d="M171.429907,4.20560748 L171.429907,42.0560748 L172.831776,40.6542056 L171.429907,4.20560748" id="Fill-23" fill="#AF9358" sketch:type="MSShapeGroup"></path>
                <path d="M11.6168224,137.383178 L52.271028,141.588785 L49.4672897,142.990654 L11.6168224,137.383178" id="Fill-24" fill="#AF9358" sketch:type="MSShapeGroup"></path>
                <path d="M171.429907,133.17757 L171.429907,142.990654 L172.831776,134.579439 L171.429907,133.17757" id="Fill-25" fill="#FFFFFF" sketch:type="MSShapeGroup"></path>
                <path d="M216.933178,134.454673 L135.215421,143.200935 C132.635981,143.477103 130.321495,141.609813 130.045327,139.031776 L117.551869,22.2911215 C117.275701,19.7130841 119.141589,17.3985981 121.721028,17.1224299 L203.438785,8.37616822 C206.018224,8.1 208.33271,9.96728972 208.608879,12.5453271 L221.103738,129.285981 C221.378505,131.864019 219.512617,134.178505 216.933178,134.454673" id="Fill-26" fill="#212121" sketch:type="MSShapeGroup"></path>
                <path d="M217.057944,135.62243 L135.340187,144.368692 C132.121495,144.713551 129.22243,142.375234 128.878972,139.156542 L116.384112,22.4172897 C116.039252,19.1985981 118.37757,16.2995327 121.596262,15.9546729 L203.314019,7.20841121 C206.53271,6.8635514 209.431776,9.20186916 209.775234,12.4205607 L222.270093,129.161215 C222.614953,132.378505 220.276636,135.27757 217.057944,135.62243 L217.057944,135.62243 Z M121.845794,18.2901869 C119.915421,18.4962617 118.51215,20.2359813 118.718224,22.1663551 L131.213084,138.907009 C131.420561,140.837383 133.158879,142.240654 135.090654,142.033178 L216.808411,133.286916 C218.740187,133.080841 220.142056,131.341121 219.935981,129.410748 L207.441121,12.6700935 C207.233645,10.7397196 205.495327,9.3364486 203.563551,9.54392523 L121.845794,18.2901869 L121.845794,18.2901869 Z" id="Fill-27" fill="#AF9358" sketch:type="MSShapeGroup"></path>
                <path d="M137.308411,33.0196262 C137.525701,35.0495327 136.380374,36.3897196 134.350467,36.6070093 L131.914019,36.867757 L132.233645,39.8509346 C132.271495,40.2 132.159346,40.3401869 131.808879,40.3766355 L131.011215,40.4621495 C130.646729,40.5014019 130.506542,40.3892523 130.468692,40.038785 L129.507009,31.05 C129.470561,30.7009346 129.58271,30.5607477 129.947196,30.5214953 L133.656542,30.1247664 C135.67243,29.9088785 137.091121,30.9897196 137.308411,33.0196262 L137.308411,33.0196262 Z M135.460748,33.2172897 C135.352804,32.2093458 134.685514,31.671028 133.663551,31.7803738 L131.395327,32.0228972 L131.738785,35.2303738 L134.007009,34.9864486 C135.028972,34.8771028 135.568692,34.2252336 135.460748,33.2172897 L135.460748,33.2172897 Z" id="Fill-28" fill="#AF9358" sketch:type="MSShapeGroup"></path>
                <path d="M146.374299,38.817757 L145.645327,38.8962617 C145.057944,38.9593458 144.879907,38.8934579 144.73271,38.5696262 L143.895794,36.8327103 L140.030841,37.2462617 L139.566822,39.1219626 C139.48972,39.471028 139.331308,39.5719626 138.742523,39.6350467 L138.099065,39.7037383 C137.748598,39.7415888 137.649065,39.5957944 137.72757,39.2761682 L140.253738,29.8009346 C140.34486,29.4658879 140.478037,29.3803738 140.800467,29.346729 L141.542056,29.2668224 C141.864486,29.2317757 142.025701,29.2864486 142.170093,29.582243 L146.646262,38.3214953 C146.790654,38.6186916 146.723364,38.7813084 146.374299,38.817757 L146.374299,38.817757 Z M141.351402,30.9294393 L141.253271,30.9406542 C141.254673,30.9546729 141.330374,31.7817757 141.127103,32.667757 L140.365888,35.7518692 L143.250935,35.4420561 L141.871495,32.6018692 C141.484579,31.7649533 141.368224,30.9420561 141.351402,30.9294393 L141.351402,30.9294393 Z" id="Fill-29" fill="#AF9358" sketch:type="MSShapeGroup"></path>
                <path d="M150.010748,28.1621495 C152.012617,27.9476636 153.113084,28.5658879 153.919159,29.882243 C154.107009,30.1878505 154.041121,30.364486 153.722897,30.5551402 L152.988318,30.9728972 C152.695327,31.1453271 152.563551,31.103271 152.36028,30.7990654 C151.903271,30.0981308 151.296262,29.7238318 150.190187,29.8415888 C148.833178,29.9873832 148.20514,30.4794393 148.297664,31.3471963 C148.405607,32.3551402 149.573364,32.4140187 150.863084,32.4182243 C152.534112,32.4238318 154.481308,32.6257009 154.732243,34.9640187 C154.931308,36.8257009 153.654206,38.2514019 151.07757,38.5275701 C148.907477,38.7588785 147.713084,38.0523364 146.977103,36.6014019 C146.813084,36.2649533 146.880374,36.1009346 147.205607,35.9537383 L147.945794,35.5906542 C148.255607,35.4448598 148.402804,35.4995327 148.579439,35.8205607 C149.016822,36.6098131 149.81028,37.0065421 150.902336,36.888785 C152.34486,36.7345794 153.080841,36.203271 152.972897,35.1953271 C152.869159,34.2280374 151.810748,34.1299065 150.620561,34.1299065 C148.893458,34.1299065 146.765421,34.0892523 146.501869,31.638785 C146.312617,29.861215 147.490187,28.4313084 150.010748,28.1621495" id="Fill-30" fill="#AF9358" sketch:type="MSShapeGroup"></path>
                <path d="M158.878972,27.2130841 C160.880841,26.9985981 161.979907,27.6168224 162.787383,28.9331776 C162.975234,29.238785 162.909346,29.4154206 162.58972,29.6046729 L161.856542,30.0238318 C161.56215,30.1962617 161.430374,30.1542056 161.228505,29.85 C160.770093,29.1490654 160.164486,28.7747664 159.058411,28.8939252 C157.7,29.0383178 157.073364,29.5303738 157.165888,30.3981308 C157.273832,31.4060748 158.441589,31.4649533 159.729907,31.4691589 C161.402336,31.4747664 163.349533,31.6766355 163.600467,34.0149533 C163.799533,35.8766355 162.521028,37.3023364 159.945794,37.5771028 C157.774299,37.8098131 156.581308,37.103271 155.845327,35.6523364 C155.681308,35.314486 155.748598,35.1518692 156.07243,35.0046729 L156.812617,34.6415888 C157.12243,34.4957944 157.271028,34.5504673 157.446262,34.8714953 C157.885047,35.6607477 158.678505,36.0574766 159.770561,35.9397196 C161.211682,35.785514 161.947664,35.2542056 161.83972,34.2448598 C161.737383,33.278972 160.67757,33.1808411 159.488785,33.1808411 C157.761682,33.1808411 155.632243,33.1401869 155.370093,30.6897196 C155.179439,28.9121495 156.358411,27.482243 158.878972,27.2130841" id="Fill-31" fill="#AF9358" sketch:type="MSShapeGroup"></path>
                <path d="M172.147664,29.2906542 C172.364953,31.3205607 171.219626,32.6607477 169.18972,32.8780374 L166.754673,33.138785 L167.074299,36.1219626 C167.110748,36.471028 166.998598,36.611215 166.648131,36.6490654 L165.850467,36.7331776 C165.484579,36.7724299 165.345794,36.6602804 165.309346,36.3098131 L164.346262,27.321028 C164.309813,26.9719626 164.421963,26.8317757 164.786449,26.7939252 L168.495794,26.3957944 C170.513084,26.1799065 171.930374,27.2607477 172.147664,29.2906542 L172.147664,29.2906542 Z M170.3,29.4883178 C170.192056,28.4803738 169.526168,27.9420561 168.504206,28.0514019 L166.235981,28.2939252 L166.579439,31.5 L168.846262,31.2574766 C169.869626,31.1481308 170.407944,30.4962617 170.3,29.4883178 L170.3,29.4883178 Z" id="Fill-32" fill="#AF9358" sketch:type="MSShapeGroup"></path>
                <path d="M176.850935,25.2897196 C179.413551,25.0149533 180.992056,26.2626168 181.233178,28.5168224 L181.559813,31.5686916 C181.800935,33.8228972 180.52243,35.3761682 177.959813,35.6495327 C175.383178,35.9257009 173.806075,34.6780374 173.564953,32.4252336 L173.238318,29.3719626 C172.995794,27.117757 174.275701,25.564486 176.850935,25.2897196 L176.850935,25.2897196 Z M177.026168,26.9271028 C175.585047,27.0813084 174.861682,27.867757 175.000467,29.1686916 L175.331308,32.25 C175.470093,33.5509346 176.343458,34.1663551 177.784579,34.0121495 C179.213084,33.8593458 179.950467,33.0714953 179.811682,31.7705607 L179.480841,28.6892523 C179.342056,27.3869159 178.454673,26.7742991 177.026168,26.9271028 L177.026168,26.9271028 Z" id="Fill-33" fill="#AF9358" sketch:type="MSShapeGroup"></path>
                <path d="M190.35514,27.171028 C190.510748,28.6275701 189.928972,29.6817757 188.81028,30.1976636 C189.009346,30.332243 189.169159,30.5130841 189.321963,30.7514019 L191.178037,33.5411215 C191.347664,33.7920561 191.342056,34.0051402 190.991589,34.0429907 L190.179907,34.1299065 C189.577103,34.1943925 189.38785,34.1439252 189.183178,33.8116822 L187.751869,31.5574766 C187.306075,30.8271028 186.947196,30.6518692 185.979907,30.7556075 L184.945327,30.8663551 L185.298598,34.1705607 C185.336449,34.521028 185.224299,34.6598131 184.87243,34.6976636 L184.074766,34.7831776 C183.711682,34.8224299 183.571495,34.7088785 183.533645,34.3598131 L182.571963,25.371028 C182.534112,25.0205607 182.647664,24.8817757 183.010748,24.8425234 L186.875701,24.428972 C188.821495,24.2200935 190.149065,25.2392523 190.35514,27.171028 L190.35514,27.171028 Z M186.88271,26.0845794 L184.46028,26.3439252 L184.770093,29.2275701 L187.191121,28.9696262 C188.130374,28.8686916 188.607009,28.3079439 188.507477,27.3700935 C188.407944,26.4448598 187.834579,25.982243 186.88271,26.0845794 L186.88271,26.0845794 Z" id="Fill-34" fill="#AF9358" sketch:type="MSShapeGroup"></path>
                <path d="M198.314953,23.6859813 L198.38785,24.3714953 C198.425701,24.7219626 198.313551,24.8607477 197.963084,24.8985981 L195.554673,25.1565421 L196.391589,32.9831776 C196.429439,33.3336449 196.31729,33.4724299 195.968224,33.5102804 L195.15514,33.5971963 C194.804673,33.6350467 194.665888,33.5214953 194.628037,33.1724299 L193.791121,25.3457944 L191.38271,25.6023364 C191.018224,25.6415888 190.893458,25.5280374 190.855607,25.1775701 L190.78271,24.4920561 C190.74486,24.1429907 190.842991,24.0042056 191.207477,23.9649533 L197.78785,23.261215 C198.138318,23.2233645 198.277103,23.335514 198.314953,23.6859813" id="Fill-35" fill="#AF9358" sketch:type="MSShapeGroup"></path>
                <path d="M179.741589,114.358879 L180.82243,121.32757 C180.849065,121.5 180.729907,121.662617 180.557477,121.689252 L180.526636,121.693458 L173.557944,122.774299 L166.535981,123.358879 L166.51215,123.36028 C166.244393,123.38271 166.008879,123.183645 165.986449,122.915888 L165.401869,115.893925 L165.400467,115.878505 C165.386449,115.699065 165.518224,115.542056 165.697664,115.526636 L179.741589,114.358879 L165.767757,116.188318 L166.063551,115.82243 L166.978972,122.809346 L166.429439,122.366355 L173.416355,121.450935 L180.456542,121.031776 L180.160748,121.397664 L179.741589,114.358879" id="Fill-36" fill="#9B8867" sketch:type="MSShapeGroup"></path>
                <path d="M193.186916,96.5649533 L148.826168,101.313084 C148.181308,101.381776 147.578505,100.689252 147.509813,100.044393 C147.441121,99.3995327 147.88271,98.5934579 148.52757,98.5247664 L192.888318,93.7766355 C193.534579,93.7079439 194.135981,94.4018692 194.204673,95.046729 C194.274766,95.6901869 193.833178,96.4962617 193.186916,96.5649533" id="Fill-37" fill="#9B8867" sketch:type="MSShapeGroup"></path>
                <path d="M182.259346,104.784112 L161.246729,107.03271 C160.601869,107.101402 159.999065,106.408879 159.928972,105.764019 C159.86028,105.119159 160.303271,104.314486 160.948131,104.245794 L181.960748,101.995794 C182.605607,101.927103 183.208411,102.621028 183.277103,103.264486 C183.345794,103.909346 182.904206,104.715421 182.259346,104.784112" id="Fill-38" fill="#9B8867" sketch:type="MSShapeGroup"></path>
                <path d="M144.509813,55.5490654 L158.771028,64.6485981 C158.771028,64.6485981 156.821028,70.7621495 160.711215,70.3457944 L164.831308,64.0009346 C164.831308,64.0009346 162.413084,63.1275701 162.28271,61.9121495 C162.152336,60.6953271 165.669626,60.3686916 166.845794,60.2425234 C168.023364,60.1163551 169.282243,60.8551402 169.565421,63.4934579 C169.847196,66.1331776 172.528972,69.0799065 172.528972,69.0799065 C177.543458,66.2803738 173.030841,63.1233645 173.030841,63.1233645 L183.539252,51.3714953 L183.788785,53.7056075 L182.121963,59.7883178 C182.121963,59.7883178 184.304673,64.2785047 180.913551,69.364486 C177.52243,74.4504673 173.242523,73.7271028 173.242523,73.7271028 L173.36729,74.8948598 C173.36729,74.8948598 176.940654,77.1560748 177.089252,78.5495327 C177.38785,81.3378505 171.253271,79.1747664 171.253271,79.1747664 L170.245327,80.7981308 L174.141121,84.0911215 C174.141121,84.0911215 173.496262,89.5570093 169.458879,89.988785 C165.421495,90.4205607 163.646729,85.338785 163.646729,85.338785 L166.777103,81.482243 L165.485981,80.4504673 C165.485981,80.4504673 159.013551,82.8700935 158.15,81.2411215 C157.28785,79.6121495 160.821963,76.2378505 160.821963,76.2378505 L160.697196,75.0700935 C160.697196,75.0700935 156.879907,76.2658879 153.65,72.2817757 C150.418692,68.2976636 150.309346,64.3738318 150.309346,64.3738318 L144.759346,57.8831776 L144.509813,55.5490654" id="Fill-39" fill="#AF9358" sketch:type="MSShapeGroup"></path>
                <path d="M171.701869,50.2766355 C171.288318,46.4088785 167.815888,43.6079439 163.948131,44.0214953 C160.080374,44.4364486 157.279439,47.9074766 157.692991,51.7766355 C158.107944,55.6443925 161.578972,58.4453271 165.448131,58.0303738 C169.315888,57.6168224 172.116822,54.1457944 171.701869,50.2766355" id="Fill-40" fill="#AF9358" sketch:type="MSShapeGroup"></path>
                <path d="M147.226636,75.3308411 C149.824299,76.6275701 155.856542,78.7373832 157.564019,83.6705607" id="Fill-41" fill="#AF9358" sketch:type="MSShapeGroup"></path>
                <path d="M157.688785,84.8383178 C157.157477,84.8943925 156.637383,84.5817757 156.45514,84.0546729 C155.144393,80.2696262 150.830841,78.2901869 147.975234,76.9808411 C147.498598,76.7621495 147.066822,76.564486 146.702336,76.382243 C146.121963,76.0920561 145.886449,75.3869159 146.175234,74.8065421 C146.464019,74.2261682 147.169159,73.9906542 147.749533,74.2808411 C148.095794,74.453271 148.503738,74.6397196 148.95514,74.8471963 C151.976168,76.232243 157.035514,78.5537383 158.674299,83.2864486 C158.885981,83.8990654 158.56215,84.567757 157.948131,84.7808411 C157.862617,84.8102804 157.775701,84.8285047 157.688785,84.8383178" id="Fill-42" fill="#AF9358" sketch:type="MSShapeGroup"></path>
                <path d="M178.578037,81.4219626 L187.16729,73.4172897" id="Fill-43" fill="#AF9358" sketch:type="MSShapeGroup"></path>
                <path d="M178.704206,82.5883178 C178.348131,82.6275701 177.980841,82.5028037 177.718692,82.2224299 C177.277103,81.7471963 177.302336,81.0042056 177.77757,80.5626168 L186.366822,72.5593458 C186.840654,72.1149533 187.583645,72.1429907 188.026636,72.6168224 C188.469626,73.0920561 188.442991,73.8350467 187.967757,74.2766355 L179.377103,82.2799065 C179.185047,82.4607477 178.948131,82.5630841 178.704206,82.5883178" id="Fill-44" fill="#AF9358" sketch:type="MSShapeGroup"></path>
                <path d="M175.992991,79.3373832 L182.204673,82.2140187" id="Fill-45" fill="#AF9358" sketch:type="MSShapeGroup"></path>
                <path d="M182.329439,83.3817757 C182.124766,83.4028037 181.911682,83.3719626 181.711215,83.2794393 L175.499533,80.4014019 C174.910748,80.1294393 174.655607,79.4313084 174.92757,78.8425234 C175.200935,78.2551402 175.899065,77.9971963 176.486449,78.2719626 L182.698131,81.1485981 C183.286916,81.4219626 183.543458,82.1186916 183.270093,82.7074766 C183.090654,83.0957944 182.726168,83.3397196 182.329439,83.3817757" id="Fill-46" fill="#AF9358" sketch:type="MSShapeGroup"></path>
                <path d="M159.525234,79.9191589 L152.895794,84.171028" id="Fill-47" fill="#AF9358" sketch:type="MSShapeGroup"></path>
                <path d="M153.020561,85.3373832 C152.592991,85.3836449 152.155607,85.1915888 151.907477,84.8046729 C151.557009,84.2579439 151.715421,83.5317757 152.260748,83.1827103 L158.890187,78.9294393 C159.438318,78.5803738 160.163084,78.738785 160.513551,79.2841121 C160.864019,79.8308411 160.704206,80.5570093 160.158879,80.9074766 L153.529439,85.1593458 C153.371028,85.2602804 153.195794,85.3191589 153.020561,85.3373832" id="Fill-48" fill="#AF9358" sketch:type="MSShapeGroup"></path>
                <path d="M171.780374,125.554206 L40.7238318,124.97243 C36.778972,124.954206 33.5953271,121.742523 33.6135514,117.797664 L34.0060748,29.3411215 C34.0242991,25.3962617 37.2359813,22.2126168 41.1808411,22.2308411 L172.237383,22.8126168 C176.182243,22.8308411 179.365888,26.0425234 179.347664,29.9873832 L178.95514,118.443925 C178.938318,122.388785 175.725234,125.57243 171.780374,125.554206" id="Fill-49" fill="#212121" sketch:type="MSShapeGroup"></path>
                <path d="M39.9219626,126.719159 C37.8373832,126.527103 35.9056075,125.618692 34.4140187,124.114486 C32.7359813,122.421028 31.8163551,120.175234 31.8275701,117.789252 L32.2214953,29.3327103 C32.2425234,24.4107477 36.264486,20.4238318 41.1878505,20.4448598 L172.245794,21.0280374 C174.626168,21.0364486 176.869159,21.9771028 178.547196,23.6705607 C180.226636,25.3640187 181.14486,27.6098131 181.133645,29.9957944 L180.73972,118.452336 C180.731308,120.836916 179.793458,123.074299 178.097196,124.753738 C176.403738,126.431776 174.157944,127.35 171.771963,127.340187 L40.7154206,126.757009 C40.4490654,126.757009 40.1841121,126.742991 39.9219626,126.719159 L39.9219626,126.719159 Z M172.707009,24.621028 C172.548598,24.6070093 172.390187,24.6 172.228972,24.5985981 L41.1724299,24.0154206 C38.2186916,24.0028037 35.8046729,26.3957944 35.7920561,29.3481308 L35.3995327,117.806075 C35.3925234,119.237383 35.9434579,120.584579 36.9514019,121.600935 C37.9579439,122.61729 39.296729,123.176636 40.732243,123.186449 L171.788785,123.769626 C173.218692,123.775234 174.56729,123.224299 175.585047,122.216355 C176.6,121.209813 177.163551,119.866822 177.169159,118.436916 L177.561682,29.978972 C177.56729,28.5476636 177.017757,27.1990654 176.011215,26.1841121 C175.116822,25.2813084 173.957477,24.7359813 172.707009,24.621028 L172.707009,24.621028 Z M171.780374,125.554206 L171.798598,125.557009 L171.780374,125.554206 L171.780374,125.554206 Z" id="Fill-50" fill="#AF9358" sketch:type="MSShapeGroup"></path>
                <path d="M170.363084,120.536916 C170.349065,120.506075 170.984112,120.625234 171.980841,120.141589 C172.465888,119.896262 173.02243,119.463084 173.423364,118.77757 C173.86215,118.096262 173.96028,117.169626 173.909813,116.14486 C173.901402,112.044393 173.887383,106.184579 173.870561,99.1542056 C173.838318,85.0934579 173.79486,66.3462617 173.752804,47.5976636 C173.741589,42.911215 173.730374,38.2233645 173.720561,33.6098131 L173.716355,31.8827103 C173.72757,31.2630841 173.706542,30.867757 173.53271,30.4009346 C173.218692,29.5121495 172.440654,28.8084112 171.547664,28.5771028 C170.710748,28.3752336 169.439252,28.5154206 168.361215,28.4775701 C167.245327,28.4803738 166.13785,28.4817757 165.038785,28.4845794 C156.250467,28.5056075 148.049533,28.5238318 141.017757,28.5406542 C126.957009,28.5728972 117.584112,28.5939252 117.584112,28.5939252 C117.584112,28.5939252 98.8369159,28.4481308 70.7154206,28.2280374 C63.6850467,28.1719626 56.0700935,28.1130841 48.0149533,28.05 C47.0070093,28.0429907 45.9934579,28.0345794 44.9728972,28.0261682 L43.4378505,28.0149533 L42.6668224,28.0079439 C42.4327103,28.0093458 42.2518692,28.0233645 42.0443925,28.0584112 C41.2439252,28.2056075 40.517757,28.7327103 40.1098131,29.453271 C39.9065421,29.8275701 39.7943925,30.2004673 39.7635514,30.6308411 C39.7397196,31.0808411 39.7495327,31.6626168 39.7411215,32.1742991 C39.7088785,36.4037383 39.6738318,40.7242991 39.6401869,45.117757 C39.5028037,62.6929907 39.3556075,81.4401869 39.2098131,100.187383 C39.1733645,104.873832 39.135514,109.561682 39.0990654,114.229907 C39.1481308,115.389252 38.9280374,116.624299 39.2939252,117.531308 C39.6556075,118.487383 40.517757,119.231776 41.514486,119.453271 C41.9462617,119.571028 42.5897196,119.526168 43.1560748,119.541589 L44.8929907,119.555607 L48.3598131,119.582243 C57.5869159,119.65514 66.6682243,119.725234 75.4551402,119.793925 C93.0317757,119.931308 109.435047,120.06028 123.494393,120.169626 C151.615888,120.38972 170.363084,120.536916 170.363084,120.536916 C170.363084,120.536916 151.614486,120.51729 123.492991,120.486449 C109.433645,120.471028 93.028972,120.454206 75.4523364,120.434579 C66.6654206,120.426168 57.5841121,120.416355 48.3570093,120.406542 L44.8901869,120.402336 L43.1518692,120.400935 C42.5616822,120.381308 42.0303738,120.455607 41.3238318,120.302804 C40.0453271,120.026636 38.9364486,119.084579 38.461215,117.856542 C38.2130841,117.267757 38.1584112,116.528972 38.1794393,115.975234 L38.182243,114.225701 C38.1864486,109.556075 38.1920561,104.869626 38.1976636,100.183178 C38.2172897,81.4359813 38.2369159,62.6873832 38.2565421,45.1121495 C38.2607477,40.7172897 38.2649533,36.396729 38.2691589,32.1672897 C38.2761682,31.6233645 38.2593458,31.1495327 38.2831776,30.5495327 C38.3182243,29.9299065 38.5018692,29.271028 38.8046729,28.7299065 C39.4158879,27.6224299 40.5205607,26.8093458 41.7556075,26.571028 C42.0584112,26.5135514 42.3920561,26.4897196 42.6738318,26.4897196 L43.4448598,26.4897196 L44.9799065,26.4925234 C46.0004673,26.4925234 47.0140187,26.4939252 48.0219626,26.4953271 C56.0771028,26.5037383 63.6934579,26.5121495 70.7238318,26.5191589 C98.8453271,26.55 117.592523,26.5696262 117.592523,26.5696262 C117.592523,26.5696262 126.965421,26.6747664 141.026168,26.8317757 C148.056542,26.9102804 156.257477,27.0028037 165.045794,27.1009346 C166.143458,27.1135514 167.250935,27.1247664 168.366822,27.1373832 L170.046262,27.1570093 C170.598598,27.171028 171.205607,27.128972 171.895327,27.3308411 C173.186449,27.6883178 174.274299,28.7060748 174.707477,29.9817757 C174.947196,30.5929907 174.964019,31.3640187 174.940187,31.8883178 L174.920561,33.6154206 C174.868692,38.228972 174.816822,42.9154206 174.764953,47.6018692 C174.554673,66.3490654 174.344393,85.0962617 174.187383,99.1556075 C174.108879,106.185981 174.042991,112.044393 173.996729,116.14486 C174.035981,117.161215 173.921028,118.124299 173.466822,118.802804 C173.050467,119.492523 172.481308,119.921495 171.992056,120.161215 C170.98271,120.635047 170.350467,120.504673 170.363084,120.536916" id="Fill-51" fill="#9B8867" sketch:type="MSShapeGroup"></path>
                <path d="M71.2116822,97.5420561 L71.2691589,84.4738318 L61.8934579,84.4317757 L61.8345794,97.5 L49.3158879,101.203738 L49.2794393,109.382243 L82.0985981,109.528037 L82.1350467,101.349533 L71.2116822,97.5420561" id="Fill-52" fill="#212121" sketch:type="MSShapeGroup"></path>
                <path d="M49.1140187,111.159813 C48.2028037,111.075701 47.4906542,110.307477 47.4934579,109.373832 L47.5299065,101.196729 C47.5327103,100.407477 48.0528037,99.7149533 48.8084112,99.4920561 L60.0542056,96.1640187 L60.1060748,84.4247664 C60.1074766,83.9509346 60.2981308,83.4981308 60.6359813,83.164486 C60.971028,82.8308411 61.4252336,82.6443925 61.9004673,82.6471963 L71.2775701,82.6878505 C71.7528037,82.6878505 72.2042056,82.8799065 72.5378505,83.2163551 C72.8700935,83.5528037 73.0565421,84.0070093 73.0551402,84.482243 L73.0018692,96.2761682 L82.7224299,99.664486 C83.4415888,99.9140187 83.9238318,100.595327 83.921028,101.357944 L83.8845794,109.535047 C83.8831776,110.008879 83.6925234,110.461682 83.3546729,110.795327 C83.0196262,111.128972 82.5654206,111.315421 82.0901869,111.312617 L49.271028,111.166822 C49.2191589,111.166822 49.1658879,111.164019 49.1140187,111.159813 L49.1140187,111.159813 Z M51.0962617,102.53972 L51.0738318,107.603271 L80.3224299,107.733645 L80.3448598,102.616822 L70.6228972,99.2285047 C69.9037383,98.978972 69.4214953,98.2976636 69.4257009,97.5336449 L69.4747664,86.2514019 L63.6696262,86.2261682 L63.6205607,97.5084112 C63.617757,98.2962617 63.0976636,98.9901869 62.3420561,99.2130841 L51.0962617,102.53972 L51.0962617,102.53972 Z" id="Fill-53" fill="#AF9358" sketch:type="MSShapeGroup"></path>
                <path d="M66.4313084,63.6911215 L66.4313084,63.6911215 C60.2028037,63.6630841 55.132243,68.688785 55.1042056,74.9172897 L55.0705607,82.435514 C55.0439252,88.6626168 60.0696262,93.7331776 66.296729,93.761215 C72.5252336,93.7892523 77.5957944,88.7635514 77.6238318,82.5350467 L77.6574766,75.0168224 C77.685514,68.7897196 72.6584112,63.717757 66.4313084,63.6911215" id="Fill-54" fill="#212121" sketch:type="MSShapeGroup"></path>
                <path d="M65.1303738,95.4911215 C62.0785047,95.2107477 59.2523364,93.8817757 57.0696262,91.6808411 C54.6135514,89.2023364 53.2691589,85.9163551 53.2859813,82.4271028 L53.3182243,74.9102804 C53.3504673,67.7074766 59.2369159,61.8728972 66.4397196,61.9051402 C69.9149533,61.9219626 73.1995327,63.2929907 75.6584112,65.7714953 C78.114486,68.25 79.4588785,71.5373832 79.4420561,75.0252336 L79.4098131,82.5434579 C79.3775701,89.7448598 73.4911215,95.5794393 66.2897196,95.5471963 C65.9014019,95.5457944 65.514486,95.5261682 65.1303738,95.4911215 L65.1303738,95.4911215 Z M66.4228972,65.4757009 C61.1911215,65.453271 56.9140187,69.6925234 56.888785,74.9257009 L56.8565421,82.4425234 C56.8327103,87.6757009 61.0439252,91.9542056 66.3065421,91.9766355 C71.5383178,91.9990654 75.8140187,87.7598131 75.8378505,82.5266355 L75.8714953,75.0098131 C75.8827103,72.4738318 74.9056075,70.0864486 73.1224299,68.2864486 C71.3364486,66.4864486 68.9672897,65.4925234 66.4228972,65.4757009 L66.4228972,65.4757009 Z" id="Fill-55" fill="#AF9358" sketch:type="MSShapeGroup"></path>
                <path d="M50.9070093,41.7294393 C49.5373832,41.603271 48.4705607,40.4495327 48.4775701,39.0504673 C48.4831776,37.5714953 49.6873832,36.3771028 51.1663551,36.3841121 L98.0518692,36.5915888 C99.5462617,36.6028037 100.723832,37.8014019 100.718224,39.2817757 C100.711215,40.7607477 99.5070093,41.9551402 98.0280374,41.9481308 L51.1439252,41.7406542 C51.0626168,41.7406542 50.9841121,41.7364486 50.9070093,41.7294393" id="Fill-56" fill="#AF9358" sketch:type="MSShapeGroup"></path>
                <path d="M49.3915888,48.6476636 C48.478972,48.5635514 47.7668224,47.7939252 47.771028,46.8602804 C47.7752336,45.8747664 48.5771028,45.0785047 49.5640187,45.0841121 L115.203738,45.3757009 C116.180841,45.3742991 116.984112,46.1831776 116.979907,47.1686916 C116.975701,48.1542056 116.173832,48.9518692 115.186916,48.9462617 L49.5485981,48.6546729 C49.4953271,48.6546729 49.4434579,48.6518692 49.3915888,48.6476636" id="Fill-57" fill="#AF9358" sketch:type="MSShapeGroup"></path>
                <path d="M91.4560748,78.5271028 C90.5434579,78.4443925 89.8313084,77.6747664 89.835514,76.7411215 C89.8397196,75.7556075 90.6415888,74.9593458 91.6299065,74.9649533 L138.514019,75.1738318 C139.488318,75.1682243 140.294393,75.9799065 140.290187,76.9668224 C140.285981,77.9523364 139.484112,78.7485981 138.497196,78.7443925 L91.6130841,78.535514 C91.5598131,78.535514 91.5079439,78.5327103 91.4560748,78.5271028" id="Fill-58" fill="#9B8867" sketch:type="MSShapeGroup"></path>
                <path d="M91.4140187,87.9056075 C90.5028037,87.8214953 89.7906542,87.053271 89.7948598,86.1196262 C89.7990654,85.1327103 90.6009346,84.3364486 91.5878505,84.3420561 L138.471963,84.5495327 C139.451869,84.5439252 140.25514,85.3570093 140.249533,86.3425234 C140.245327,87.3294393 139.443458,88.1257009 138.45514,88.1200935 L91.571028,87.9126168 C91.5191589,87.9126168 91.4672897,87.9098131 91.4140187,87.9056075" id="Fill-59" fill="#9B8867" sketch:type="MSShapeGroup"></path>
                <path d="M91.3663551,98.8443925 C90.4551402,98.7602804 89.7429907,97.9920561 89.7457944,97.0584112 C89.7514019,96.0728972 90.553271,95.2766355 91.5401869,95.2808411 L124.357944,95.4280374 C125.329439,95.4266355 126.138318,96.2341121 126.134112,97.221028 C126.129907,98.2065421 125.328037,99.0028037 124.341121,98.9985981 L91.5233645,98.8514019 C91.4700935,98.8528037 91.4182243,98.8485981 91.3663551,98.8443925" id="Fill-60" fill="#9B8867" sketch:type="MSShapeGroup"></path>
                <path d="M49.3635514,54.8985981 C48.4523364,54.814486 47.7401869,54.0448598 47.7443925,53.111215 C47.7485981,52.1257009 48.5504673,51.3294393 49.5373832,51.3350467 L80.7934579,51.4738318 C81.7817757,51.4766355 82.5766355,52.2813084 82.571028,53.2682243 C82.5668224,54.2537383 81.7649533,55.05 80.7780374,55.0443925 L49.5205607,54.9056075 C49.4686916,54.9056075 49.4168224,54.9028037 49.3635514,54.8985981" id="Fill-61" fill="#AF9358" sketch:type="MSShapeGroup"></path>
                <path d="M143.469626,62.5962617 C142.753271,62.9327103 142.286449,63.1457944 141.825234,63.3686916 C139.135047,64.6738318 136.478505,64.7915888 133.671963,63.5565421 C131.867757,62.7616822 129.88972,62.3649533 127.985981,61.8 C127.569626,61.6766355 127.140654,61.5981308 126.742523,61.2714953 C132.347196,60.9462617 137.949065,60.3981308 143.511682,62.3299065 C142.750467,60.3939252 140.890187,60.2579439 139.607477,59.3271028 C138.861682,58.7859813 138.192991,58.1313084 137.53972,57.4780374 C136.516355,56.4560748 135.495794,55.4257009 134.549533,54.3336449 C133.983178,53.678972 133.620093,52.8490654 133.053738,52.1943925 C132.690654,51.7738318 132.122897,51.5271028 131.646262,51.2018692 C132.380841,49.9219626 130.830374,49.9682243 130.471495,49.0836449 C130.606075,49.0219626 130.848598,48.9126168 131.178037,48.7640187 C129.392056,46.2392523 127.711215,43.8630841 126.028972,41.4869159 C126.071028,41.4336449 126.111682,41.3817757 126.152336,41.3285047 C126.403271,41.4785047 126.668224,41.6088785 126.903738,41.7813084 C128.466822,42.9280374 129.919159,44.2906542 131.625234,45.1471963 C132.459346,45.5663551 133.341121,45.6883178 133.701402,46.7565421 C133.928505,46.5574766 134.088318,46.4172897 134.124766,46.3850467 C138.788785,50.4560748 141.872897,55.521028 143.520093,61.5 C143.706542,61.4046729 143.892991,61.3107477 144.079439,61.2168224 C143.664486,60.1373832 143.126168,59.0859813 142.866822,57.9700935 C142.603271,56.8415888 142.622897,55.6471963 142.507944,54.4808411 C142.412617,53.5079439 142.322897,52.532243 142.188318,51.5635514 C142.109813,51.0014019 141.498598,50.3957944 142.394393,49.9584112 C142.426636,49.9429907 142.433645,49.7663551 142.392991,49.7242991 C141.554673,48.8985981 142.195327,47.8542056 141.996262,46.9219626 C141.763551,45.8299065 141.812617,44.6761682 141.784579,43.5476636 C141.781776,43.4439252 142.094393,43.3317757 142.384579,43.1425234 C142.599065,42.611215 141.565888,41.5934579 142.851402,41.0985981 C142.938318,41.0649533 142.726636,40.4593458 142.803738,40.1593458 C142.91729,39.7135514 142.163084,38.8471963 143.368692,38.8542056 C143.396729,38.8542056 143.400935,38.3985981 143.461215,38.1686916 C143.720561,37.1985981 144.041589,36.2439252 144.254673,35.2640187 C144.46215,34.3051402 144.574299,33.3238318 144.715888,32.3509346 C144.791589,31.8336449 144.839252,31.3135514 145.177103,30.7976636 C145.458879,32.9158879 145.739252,35.0341121 146.02243,37.1607477 C147.048598,37.264486 147.655607,38.7504673 147.228037,40.3485981 C147.476168,40.4046729 147.721495,40.4593458 148.041121,40.5308411 C147.921963,41.1757009 147.802804,41.8149533 147.668224,42.5341121 C147.951402,42.5046729 148.203738,42.4794393 148.464486,42.4514019 C148.500935,42.5271028 148.569626,42.6 148.564019,42.6672897 C148.435047,44.0074766 148.297664,45.3462617 148.156075,46.7453271 C148.33972,46.7327103 148.585047,46.714486 148.871028,46.6934579 C148.833178,46.9023364 148.841589,47.0383178 148.785514,47.1350467 C147.864486,48.7051402 148.214953,50.5079439 147.858879,52.1817757 C147.794393,52.488785 147.774766,52.8098131 147.679439,53.1070093 C147.264486,54.4037383 146.878972,55.7130841 146.38271,56.978972 C146.009813,57.9294393 145.440654,58.8028037 145.043925,59.7462617 C144.818224,60.2817757 144.763551,60.888785 144.633178,61.4635514 C144.742523,61.5028037 144.853271,61.5420561 144.962617,61.5813084 C145.257009,60.9771028 145.530374,60.3630841 145.847196,59.7714953 C146.759813,58.0640187 147.586916,56.2976636 148.646729,54.685514 C149.447196,53.4686916 150.521028,52.4214953 151.544393,51.3672897 C151.88785,51.0140187 152.48785,50.9228972 152.909813,50.6242991 C154.21215,49.703271 155.370093,48.4457944 156.807009,47.8892523 C157.920093,47.4574766 158.902804,46.853271 159.964019,46.3934579 C161.372897,45.7836449 162.935981,45.5299065 164.751402,45.0378505 C162.254673,46.703271 160.618692,48.7654206 159.307944,51.0827103 C159.389252,51.1528037 159.469159,51.2228972 159.550467,51.2929907 C159.080841,51.5411215 158.612617,51.7906542 158.098131,52.0626168 C158.206075,52.3738318 158.304206,52.6570093 158.386916,52.896729 C157.88785,53.4546729 156.647196,53.121028 156.920561,54.3420561 C156.926168,54.3658879 156.792991,54.4275701 156.720093,54.4626168 C155.361682,55.114486 154.650935,56.464486 153.554673,57.3799065 C152.580374,58.1943925 151.430841,58.8182243 150.303738,59.4266355 C148.730841,60.2747664 147.108879,61.028972 145.335514,61.9093458 C150.02757,61.2070093 154.510748,60.535514 158.995327,59.8654206 C159.003738,59.9593458 159.01215,60.053271 159.020561,60.1485981 C157.014486,61.3528037 155.088318,62.7308411 152.971495,63.696729 C151.642523,64.3037383 150.083645,64.7663551 148.534579,64.4397196 C148.007477,64.3275701 147.56729,63.835514 147.064019,63.5607477 C146.566355,63.288785 146.039252,63.0742991 145.561215,62.8514019 C146.11215,64.3065421 146.656075,65.7448598 147.2,67.1831776 C147.034579,67.2588785 146.867757,67.3331776 146.700935,67.4088785 C146.166822,66.4528037 145.63271,65.496729 145.000467,64.3654206 C144.58271,65.7154206 145.813551,67.1425234 144.268692,68.2990654 C144.13271,66.8551402 144.010748,65.5528037 143.873364,64.0892523 C142.911682,65.1378505 142.085981,66.0392523 141.26028,66.9406542 C141.153738,66.8747664 141.048598,66.8074766 140.942056,66.7401869 C141.724299,65.4588785 142.50514,64.1775701 143.469626,62.5962617" id="Fill-62" fill="#AF9358" sketch:type="MSShapeGroup"></path>
                <path d="M164.03785,91.6906542 C164.03785,91.6892523 164.02243,92.2640187 163.995794,93.2705607 C163.920093,94.2714953 163.74486,95.7126168 163.220561,97.3724299 C162.268692,100.699065 159.540654,104.830374 155.444393,107.269626 C153.420093,108.506075 151.172897,109.313551 148.920093,109.665421 C146.757009,110.008879 144.598131,109.941589 142.828972,109.635981 C141.058411,109.286916 139.61028,108.811682 138.651402,108.361682 C137.675701,107.942523 137.155607,107.627103 137.155607,107.627103 C137.155607,107.627103 136.076168,107.048131 134.465421,105.665888 C132.874299,104.286449 130.833178,101.936916 129.471963,98.5766355 C128.173832,95.2163551 127.643925,90.8200935 128.998131,86.5303738 C130.27243,82.2406542 133.392991,78.2299065 137.549533,75.9546729 C139.620093,74.8051402 141.886916,74.0817757 144.214019,73.8224299 C146.469626,73.5672897 148.809346,73.7523364 150.909346,74.3214953 C155.175234,75.438785 158.546729,78.1093458 160.57243,80.9102804 C162.669626,83.7084112 163.479907,86.5724299 163.799533,88.5434579 C163.866822,89.0425234 163.925701,89.4869159 163.97757,89.8752336 C163.991589,90.2649533 164.002804,90.5971963 164.011215,90.8649533 C164.029439,91.403271 164.03785,91.6906542 164.03785,91.6906542 C164.03785,91.6892523 164.021028,91.403271 163.988785,90.8663551 C163.971963,90.5985981 163.952336,90.2663551 163.928505,89.8780374 C163.865421,89.4939252 163.793925,89.0523364 163.714019,88.5574766 C163.342523,86.6074766 162.456542,83.7911215 160.321495,81.1023364 C158.256542,78.4051402 154.890654,75.9028037 150.752336,74.9425234 C146.643458,73.938785 141.877103,74.5233645 138.052804,76.832243 C134.189252,79.0892523 131.393925,82.9261682 130.327103,86.9158879 C129.774766,88.9149533 129.607944,90.9084112 129.792991,92.8233645 C129.969626,94.7018692 130.412617,96.4051402 131.053271,97.928972 C132.375234,100.938785 134.267757,102.998131 135.725701,104.193925 C137.203271,105.391121 138.17757,105.878972 138.17757,105.878972 C138.17757,105.878972 138.623364,106.185981 139.474299,106.606542 C140.309813,107.059346 141.581308,107.551402 143.168224,107.96215 C144.776168,108.323832 146.672897,108.501869 148.779907,108.287383 C150.790187,108.086916 152.988318,107.449065 154.941121,106.392056 C158.928037,104.311682 161.807477,100.484579 162.921963,97.2686916 C163.526168,95.6705607 163.778505,94.253271 163.908879,93.2621495 C163.991589,92.261215 164.03785,91.6906542 164.03785,91.6906542" id="Fill-63" fill="#9B8867" sketch:type="MSShapeGroup"></path>
                <path d="M159.652804,91.671028 C159.652804,91.671028 159.645794,92.1014019 159.631776,92.8570093 C159.581308,93.6084112 159.460748,94.6934579 159.078037,95.9453271 C158.38271,98.4546729 156.355607,101.590654 153.270093,103.464953 C151.743458,104.414019 150.051402,105.042056 148.331308,105.323832 C146.702336,105.598598 145.050935,105.56215 143.703738,105.339252 C142.352336,105.084112 141.24486,104.730841 140.51028,104.392991 C139.761682,104.078972 139.363551,103.842056 139.363551,103.842056 C139.363551,103.842056 138.540654,103.396262 137.315421,102.336449 C136.107009,101.278037 134.556542,99.4808411 133.530374,96.9154206 C132.550467,94.3485981 132.163551,91.0037383 133.206542,87.7528037 C134.189252,84.4976636 136.569626,81.4682243 139.723832,79.7593458 C141.295327,78.8943925 143.009813,78.3560748 144.774766,78.1668224 C146.471028,77.9817757 148.247196,78.1303738 149.827103,78.5663551 C153.041589,79.4242991 155.570561,81.4485981 157.084579,83.5626168 C158.653271,85.6738318 159.250467,87.8285047 159.484579,89.3088785 C159.602336,90.0588785 159.642991,90.6462617 159.635981,91.0514019 C159.647196,91.4551402 159.652804,91.671028 159.652804,91.671028 C159.652804,91.671028 159.638785,91.4551402 159.613551,91.0528037 C159.606542,90.6476636 159.542056,90.0588785 159.399065,89.3228972 C159.113084,87.8635514 158.440187,85.7565421 156.833645,83.753271 C155.280374,81.7443925 152.757009,79.8883178 149.668692,79.1873832 C146.6,78.4542056 143.054673,78.9084112 140.227103,80.6369159 C137.365888,82.3275701 135.309346,85.1831776 134.535514,88.1383178 C134.134579,89.6200935 134.018224,91.0878505 134.164019,92.5121495 C134.301402,93.8985981 134.632243,95.1434579 135.111682,96.2691589 C136.098598,98.4827103 137.499065,99.9911215 138.577103,100.864486 C139.667757,101.739252 140.384112,102.093925 140.384112,102.093925 C140.384112,102.093925 141.697664,103.044393 144.042991,103.665421 C145.228972,103.942991 146.618224,104.091589 148.191121,103.947196 C149.670093,103.814019 151.311682,103.357009 152.768224,102.585981 C155.744393,101.071963 157.922897,98.2401869 158.778037,95.8415888 C159.240654,94.65 159.441121,93.5915888 159.54486,92.8485981 C159.613551,92.0985981 159.652804,91.671028 159.652804,91.671028" id="Fill-64" fill="#9B8867" sketch:type="MSShapeGroup"></path>
                <path d="M144.120093,97.7663551 C143.717757,97.7285047 143.325234,97.5546729 143.016822,97.2448598 L137.559346,91.7383178 C136.865421,91.038785 136.869626,89.9074766 137.570561,89.2135514 C138.268692,88.521028 139.4,88.5238318 140.095327,89.2247664 L144.296729,93.4626168 L152.939252,84.8971963 C153.635981,84.2046729 154.768692,84.2060748 155.462617,84.9070093 C156.156542,85.6079439 156.152336,86.7392523 155.451402,87.4317757 L145.541589,97.2560748 C145.151869,97.6429907 144.628972,97.8126168 144.120093,97.7663551" id="Fill-65" fill="#9B8867" sketch:type="MSShapeGroup"></path>
                <path d="M192.457944,120.560748 L196.819159,114.953271 L192.457944,109.345794 L198.065421,113.707009 L203.672897,109.345794 L199.311682,114.953271 L203.672897,120.560748 L198.065421,116.199533 L192.457944,120.560748" id="Fill-66" fill="#AF9358" sketch:type="MSShapeGroup"></path>
                <path d="M225.878505,111.947664 L219.277103,43.5154206 L213.858879,20.0481308 L225.878505,111.947664" id="Fill-67" fill="#AF9358" sketch:type="MSShapeGroup"></path>
            </g>
        </g>
    </g>
</svg>